<svg width="2892" height="1466" viewBox="0 0 2892 1466" fill="none" xmlns="http://www.w3.org/2000/svg">
<g clip-path="url(#clip0_132_40)">
<path d="M2.20996 421.905V424.786C2.20996 426.193 2.47779 427.466 3.08042 428.673C3.48217 429.946 4.15175 431.018 5.15613 431.889C6.09355 432.894 7.16488 433.564 8.37013 433.966C9.57538 434.569 10.8476 434.904 12.2537 434.837L14.9321 434.502C16.606 434.033 18.0791 433.162 19.3513 431.889L20.8914 429.879C21.8288 428.338 22.2305 426.595 22.2305 424.786V421.905C22.2305 420.498 21.9627 419.225 21.3601 418.019C20.9583 416.746 20.2887 415.674 19.2844 414.803C18.3469 413.798 17.2756 413.128 16.0703 412.726C14.8651 412.123 13.5929 411.788 12.1868 411.855L9.50843 412.19C7.83447 412.659 6.36138 413.53 5.08917 414.803L3.54913 416.813C2.61171 418.354 2.20996 420.096 2.20996 421.905Z" fill="white"/>
<path d="M223.105 660.027C236.028 660.027 236.028 639.927 223.105 639.927C210.182 639.927 210.182 660.027 223.105 660.027Z" fill="white"/>
<path d="M1399.7 1126.96H1396.28" stroke="white" stroke-miterlimit="10"/>
<path d="M27.855 1190.61C21.6948 1190.61 18.2799 1183.64 21.8957 1178.61C25.3106 1173.86 28.3907 1168.83 31.2699 1163.47C36.6935 1153.42 41.2467 1141.9 44.8624 1128.83L266.294 379.896C267.231 376.68 270.177 374.536 273.458 374.536H281.226C284.573 374.536 287.52 376.747 288.457 379.963L523.481 1190.61C528.972 1206.55 535.734 1220.69 543.769 1233.22C546.983 1238.25 543.502 1244.81 537.542 1244.81H445.207C439.18 1244.81 435.766 1238.18 439.046 1233.15C444.001 1225.52 447.952 1216.54 450.831 1206.29C451.233 1204.95 451.233 1203.47 450.831 1202.07L396.796 1010.84C396.126 1008.37 394.184 1006.42 391.707 1005.69L276.338 971.381C272.387 970.175 268.236 972.453 267.03 976.406L215.338 1148.13C215.004 1149.27 214.87 1150.54 215.138 1151.75C217.012 1162.2 220.628 1171.24 226.052 1178.95C229.467 1183.84 225.717 1190.54 219.758 1190.54H27.855V1190.61ZM289.93 924.748L366.196 948.533C371.887 950.275 377.244 945.049 375.637 939.287L334.792 795.369C332.717 788.133 322.539 788.066 320.396 795.302L284.975 915.435C283.837 919.388 286.047 923.475 289.93 924.748Z" fill="url(#paint0_linear_132_40)"/>
<path d="M616.487 387.601L599.814 402.341C598.207 403.748 597.269 405.825 597.269 407.969V933.056C597.269 959.187 605.639 981.498 622.446 1000.06C639.185 1018.62 659.34 1027.93 682.976 1027.93C706.613 1027.93 726.7 1018.68 743.507 1000.06C760.246 981.498 768.683 959.187 768.683 933.056C768.683 915.971 768.884 899.422 769.353 883.341C769.821 867.328 769.553 850.712 768.683 833.627V532.457C768.683 516.377 765.737 503.379 759.844 493.328C757.367 489.107 754.555 485.288 751.341 481.737C746.988 476.913 750.336 469.208 756.831 469.208H928.647C935.142 469.208 938.289 476.913 933.936 481.737C922.955 493.998 916.795 510.95 915.523 532.457V973.592C915.523 1003.74 910.3 1031.82 899.854 1057.88C889.409 1084.01 875.348 1106.79 857.671 1126.42C839.994 1145.99 819.37 1161.6 795.801 1173.12C772.232 1184.64 746.855 1190.41 719.669 1190.41C692.484 1190.41 667.107 1184.64 643.538 1173.12C619.968 1161.6 599.345 1146.05 581.668 1126.42C563.991 1106.86 549.93 1084.01 539.484 1057.88C529.039 1031.82 523.816 1003.68 523.816 973.592V407.902C523.816 405.825 522.946 403.815 521.406 402.408L505.336 387.534C500.314 382.911 503.595 374.536 510.424 374.536H611.465C618.361 374.536 621.575 383.112 616.42 387.668L616.487 387.601Z" fill="url(#paint1_linear_132_40)"/>
<path d="M777.521 310.684L868.651 71.9591C869.79 69.078 872.535 67.135 875.682 67.135H1282.79C1285.94 67.135 1288.68 69.078 1289.82 72.0261L1379.61 310.751C1381.89 316.848 1375.66 323.012 1369.77 320.265C1369.77 320.265 1369.63 320.265 1369.57 320.198C1364.14 317.183 1356.84 310.684 1347.81 300.634C1338.7 290.583 1326.51 274.57 1311.11 252.46C1289.35 220.366 1265.58 192.762 1239.73 169.647C1216.63 149.01 1190.79 133.533 1162.2 123.349C1157.24 121.607 1152.02 125.091 1152.02 130.384L1151.35 1179.82C1151.35 1181.09 1151.68 1182.3 1152.22 1183.37L1179.41 1233.89C1182.08 1238.92 1178.47 1244.95 1172.78 1244.95H984.154C978.53 1244.95 974.914 1238.98 977.459 1234.02L1003.64 1183.37C1004.18 1182.3 1004.44 1181.16 1004.44 1179.95L1005.11 130.518C1005.11 125.292 999.89 121.741 994.935 123.483C966.41 133.667 940.765 149.144 918.067 169.781C892.689 192.896 868.651 220.5 846.019 252.594C831.489 274.704 819.504 290.784 809.996 300.768C800.488 310.818 792.988 317.317 787.565 320.332C787.565 320.332 787.431 320.332 787.364 320.399C781.471 323.146 775.244 317.049 777.521 310.885V310.684Z" fill="url(#paint2_linear_132_40)"/>
<path d="M1218.71 782.572C1218.71 726.358 1224.8 673.427 1237.06 623.712C1249.31 573.998 1266.05 530.648 1287.34 493.462C1308.64 456.344 1333.34 427.198 1361.47 406.16C1389.59 385.055 1419.92 374.536 1452.6 374.536C1485.27 374.536 1515.6 385.055 1543.73 406.16C1571.78 427.265 1596.49 456.344 1617.85 493.462C1639.14 530.581 1655.95 573.998 1668.13 623.712C1680.39 673.427 1686.48 726.358 1686.48 782.572C1686.48 838.786 1680.39 891.716 1668.13 941.431C1655.88 991.146 1639.14 1034.29 1617.85 1070.94C1596.56 1107.59 1571.85 1136.67 1543.73 1158.25C1515.6 1179.82 1485.27 1190.61 1452.6 1190.61C1419.92 1190.61 1389.59 1179.82 1361.47 1158.25C1333.34 1136.67 1308.64 1107.59 1287.34 1070.94C1266.05 1034.29 1249.24 991.146 1237.06 941.431C1224.8 891.716 1218.71 838.786 1218.71 782.572ZM1452.53 1139.42C1465.18 1139.42 1477.44 1130.17 1489.22 1111.55C1501.01 1092.99 1511.18 1067.39 1519.82 1034.76C1528.46 1002.13 1535.22 964.279 1540.24 921.063C1545.2 877.914 1547.74 831.751 1547.74 782.572C1547.74 733.393 1545.2 687.229 1540.24 644.081C1535.22 600.932 1528.46 563.01 1519.82 530.38C1511.18 497.751 1501.01 472.156 1489.22 453.597C1477.44 435.038 1465.18 425.724 1452.53 425.724C1438.94 425.724 1426.48 435.038 1415.17 453.597C1403.85 472.156 1394.07 497.751 1385.91 530.38C1377.74 563.01 1371.17 600.932 1366.15 644.081C1361.13 687.229 1358.65 733.46 1358.65 782.572C1358.65 831.684 1361.13 877.981 1366.15 921.063C1371.11 964.212 1377.74 1002.13 1385.91 1034.76C1394.07 1067.39 1403.78 1092.99 1415.17 1111.55C1426.48 1130.11 1438.94 1139.42 1452.53 1139.42Z" fill="url(#paint3_linear_132_40)"/>
<path d="M1714.14 374.469H1875.91C1879.12 374.469 1882 376.546 1883 379.561L1991.08 702.037C1993.22 708.402 2001.92 709.005 2004.94 702.975L2166.1 378.556C2167.38 376.01 2169.99 374.402 2172.8 374.402H2263.26C2268.89 374.402 2272.5 380.365 2269.96 385.323L2243.78 435.976C2243.24 437.048 2242.97 438.254 2242.97 439.393V1179.55C2242.97 1180.76 2243.24 1181.96 2243.78 1182.97L2269.96 1233.62C2272.57 1238.65 2268.89 1244.54 2263.26 1244.54H2149.23C2143.61 1244.54 2139.99 1238.58 2142.54 1233.62L2168.72 1182.97C2169.25 1181.9 2169.52 1180.69 2169.52 1179.55V742.103C2169.52 734.197 2158.81 731.651 2155.32 738.753L2026.63 998.047C2023.68 1004.01 2014.91 1003.47 2012.84 997.109L1895.93 650.982C1893.18 642.942 1881.33 644.885 1881.33 653.394V1125.35C1881.33 1126.62 1881.67 1127.83 1882.2 1128.9L1909.39 1179.42C1912.06 1184.44 1908.45 1190.47 1902.76 1190.47H1714.14C1708.51 1190.47 1704.89 1184.51 1707.44 1179.55L1733.55 1128.9C1734.09 1127.83 1734.36 1126.62 1734.36 1125.48V439.527C1734.36 438.321 1734.09 437.115 1733.55 436.11L1707.44 385.457C1704.83 380.432 1708.51 374.536 1714.14 374.536V374.469Z" fill="url(#paint4_linear_132_40)"/>
<path d="M1452.6 836.307C1487.06 836.307 1515 808.349 1515 773.862C1515 739.374 1487.06 711.417 1452.6 711.417C1418.13 711.417 1390.19 739.374 1390.19 773.862C1390.19 808.349 1418.13 836.307 1452.6 836.307Z" fill="url(#paint5_linear_132_40)"/>
<path d="M1452.6 805.084C1469.83 805.084 1483.8 791.105 1483.8 773.862C1483.8 756.618 1469.83 742.639 1452.6 742.639C1435.36 742.639 1421.39 756.618 1421.39 773.862C1421.39 791.105 1435.36 805.084 1452.6 805.084Z" fill="white"/>
<path d="M1460.56 697.28H1445.16V712.69H1460.56V697.28Z" fill="url(#paint6_linear_132_40)"/>
<path d="M1460.56 835.034H1445.16V850.444H1460.56V835.034Z" fill="url(#paint7_linear_132_40)"/>
<path d="M1528.93 775.939V760.529H1513.53V775.939H1528.93Z" fill="url(#paint8_linear_132_40)"/>
<path d="M1392.13 773.862V758.452H1376.73V773.862H1392.13Z" fill="url(#paint9_linear_132_40)"/>
<path d="M1401.7 738.199L1411.75 726.523L1400.09 716.466L1390.04 728.142L1401.7 738.199Z" fill="url(#paint10_linear_132_40)"/>
<path d="M1506.84 828.821L1516.9 817.145L1505.23 807.088L1495.18 818.764L1506.84 828.821Z" fill="url(#paint11_linear_132_40)"/>
<path d="M1504.37 739.183L1516.03 729.126L1505.98 717.45L1494.31 727.507L1504.37 739.183Z" fill="url(#paint12_linear_132_40)"/>
<path d="M1399.01 829.993L1410.68 819.936L1400.63 808.26L1388.96 818.317L1399.01 829.993Z" fill="url(#paint13_linear_132_40)"/>
<path d="M1452.86 766.157C1443.89 766.157 1433.38 771.316 1433.38 775.135C1433.38 778.954 1443.89 784.046 1452.86 784.046C1461.84 784.046 1471.81 778.887 1471.81 775.135C1471.81 771.383 1461.84 766.157 1452.86 766.157Z" fill="url(#paint14_linear_132_40)"/>
<path d="M1453.13 780.83C1456.09 780.83 1458.49 778.43 1458.49 775.47C1458.49 772.51 1456.09 770.11 1453.13 770.11C1450.17 770.11 1447.77 772.51 1447.77 775.47C1447.77 778.43 1450.17 780.83 1453.13 780.83Z" fill="white"/>
<path d="M2849.48 1249.9C2842.18 1233.56 2826.72 1218.28 2814.6 1195.83L2652.82 64.9239C2637.89 55.5438 2601.87 33.6345 2586.74 24.3213C2580.84 20.7033 2575.22 14.6732 2567.39 8.37507C2555 -1.67508 2537.19 0.133949 2529.96 0.0669475C2525.94 0.267951 2520.51 0.736958 2514.15 1.80897C2514.15 1.80897 2504.11 5.96304 2497.68 11.9931C2483.55 25.1923 2386.2 143.047 2364.9 157.251C2347.36 168.977 2346.56 138.558 2322.72 135.878C2314.15 134.94 2302.23 135.744 2293.66 138.759C2263.19 149.345 2218.2 201.003 2207.62 212.326C2175.68 246.564 1991.48 419.895 2087.96 374.603C2152.38 344.385 2223.29 314.838 2256.63 299.026C2299.95 278.523 2307.85 374.536 2348.97 364.017C2386 356.579 2423.02 261.371 2435.61 276.178C2443.98 286.094 2444.78 282.744 2443.98 286.094C2400.46 581.971 2351.04 838.049 2307.52 1133.93C2303.9 1147.06 2299.35 1158.65 2293.86 1168.7C2288.44 1178.75 2282.08 1187.79 2274.84 1195.77H2499.22C2487.44 1185.72 2480.21 1172.18 2477.46 1155.1L2531.83 974.396L2658.32 1012.05L2714.09 1209.3C2709.54 1226.39 2702.31 1239.92 2692.33 1249.97H2849.55L2849.48 1249.9ZM2367.58 820.16L2372.67 796.039L2559.42 854.531L2552.19 876.574L2367.58 820.16ZM2545.36 927.696L2590.22 775.604L2641.91 957.78L2545.36 927.696ZM2634.54 897.01L2625.71 872.018L2769.87 916.306L2772.88 937.21L2634.61 896.943L2634.54 897.01Z" fill="url(#paint15_linear_132_40)"/>
<path d="M1242.28 1327.22H0V1352.88H1242.28V1327.22Z" fill="url(#paint16_linear_132_40)"/>
<path d="M2892 1327.22H1649.72V1352.88H2892V1327.22Z" fill="url(#paint17_linear_132_40)"/>
<path d="M1568.83 1316.3C1567.5 1377.14 1518.68 1426.05 1458.49 1426.05C1398.29 1426.05 1348.01 1375.8 1348.01 1313.76C1348.01 1285.01 1358.72 1258.82 1376.26 1238.98C1344.86 1261.76 1324.3 1299.02 1324.3 1341.23C1324.3 1410.51 1379.61 1466.72 1447.77 1466.72C1515.94 1466.72 1571.25 1410.51 1571.25 1341.23C1571.25 1332.65 1570.37 1324.34 1568.77 1316.24L1568.83 1316.3Z" fill="url(#paint18_linear_132_40)"/>
</g>
<defs>
<linearGradient id="paint0_linear_132_40" x1="282.705" y1="374.536" x2="282.705" y2="1244.81" gradientUnits="userSpaceOnUse">
<stop stop-color="#878787"/>
<stop offset="0.48" stop-color="white"/>
<stop offset="1" stop-color="#7E7C7C"/>
</linearGradient>
<linearGradient id="paint1_linear_132_40" x1="719.426" y1="374.536" x2="719.426" y2="1190.41" gradientUnits="userSpaceOnUse">
<stop stop-color="#878787"/>
<stop offset="0.48" stop-color="white"/>
<stop offset="1" stop-color="#7E7C7C"/>
</linearGradient>
<linearGradient id="paint2_linear_132_40" x1="1078.57" y1="67.135" x2="1078.57" y2="1244.95" gradientUnits="userSpaceOnUse">
<stop stop-color="#878787"/>
<stop offset="0.48" stop-color="white"/>
<stop offset="1" stop-color="#7E7C7C"/>
</linearGradient>
<linearGradient id="paint3_linear_132_40" x1="1452.6" y1="374.536" x2="1452.6" y2="1190.61" gradientUnits="userSpaceOnUse">
<stop stop-color="#878787"/>
<stop offset="0.48" stop-color="white"/>
<stop offset="1" stop-color="#7E7C7C"/>
</linearGradient>
<linearGradient id="paint4_linear_132_40" x1="1988.7" y1="374.402" x2="1988.7" y2="1244.54" gradientUnits="userSpaceOnUse">
<stop stop-color="#878787"/>
<stop offset="0.48" stop-color="white"/>
<stop offset="1" stop-color="#7E7C7C"/>
</linearGradient>
<linearGradient id="paint5_linear_132_40" x1="1452.6" y1="711.417" x2="1452.6" y2="836.307" gradientUnits="userSpaceOnUse">
<stop stop-color="#878787"/>
<stop offset="0.48" stop-color="white"/>
<stop offset="1" stop-color="#7E7C7C"/>
</linearGradient>
<linearGradient id="paint6_linear_132_40" x1="1452.86" y1="697.28" x2="1452.86" y2="712.69" gradientUnits="userSpaceOnUse">
<stop stop-color="#878787"/>
<stop offset="0.48" stop-color="white"/>
<stop offset="1" stop-color="#7E7C7C"/>
</linearGradient>
<linearGradient id="paint7_linear_132_40" x1="1452.86" y1="835.034" x2="1452.86" y2="850.444" gradientUnits="userSpaceOnUse">
<stop stop-color="#878787"/>
<stop offset="0.48" stop-color="white"/>
<stop offset="1" stop-color="#7E7C7C"/>
</linearGradient>
<linearGradient id="paint8_linear_132_40" x1="1528.93" y1="768.234" x2="1513.53" y2="768.234" gradientUnits="userSpaceOnUse">
<stop stop-color="#878787"/>
<stop offset="0.48" stop-color="white"/>
<stop offset="1" stop-color="#7E7C7C"/>
</linearGradient>
<linearGradient id="paint9_linear_132_40" x1="1392.13" y1="766.157" x2="1376.73" y2="766.157" gradientUnits="userSpaceOnUse">
<stop stop-color="#878787"/>
<stop offset="0.48" stop-color="white"/>
<stop offset="1" stop-color="#7E7C7C"/>
</linearGradient>
<linearGradient id="paint10_linear_132_40" x1="1406.73" y1="732.361" x2="1395.05" y2="722.311" gradientUnits="userSpaceOnUse">
<stop stop-color="#878787"/>
<stop offset="0.48" stop-color="white"/>
<stop offset="1" stop-color="#7E7C7C"/>
</linearGradient>
<linearGradient id="paint11_linear_132_40" x1="1511.87" y1="822.983" x2="1500.2" y2="812.933" gradientUnits="userSpaceOnUse">
<stop stop-color="#878787"/>
<stop offset="0.48" stop-color="white"/>
<stop offset="1" stop-color="#7E7C7C"/>
</linearGradient>
<linearGradient id="paint12_linear_132_40" x1="1510.2" y1="734.155" x2="1500.14" y2="722.485" gradientUnits="userSpaceOnUse">
<stop stop-color="#878787"/>
<stop offset="0.48" stop-color="white"/>
<stop offset="1" stop-color="#7E7C7C"/>
</linearGradient>
<linearGradient id="paint13_linear_132_40" x1="1404.85" y1="824.965" x2="1394.79" y2="813.295" gradientUnits="userSpaceOnUse">
<stop stop-color="#878787"/>
<stop offset="0.48" stop-color="white"/>
<stop offset="1" stop-color="#7E7C7C"/>
</linearGradient>
<linearGradient id="paint14_linear_132_40" x1="1452.6" y1="766.157" x2="1452.6" y2="784.046" gradientUnits="userSpaceOnUse">
<stop stop-color="#878787"/>
<stop offset="0.48" stop-color="white"/>
<stop offset="1" stop-color="#7E7C7C"/>
</linearGradient>
<linearGradient id="paint15_linear_132_40" x1="2454.91" y1="-0.0200195" x2="2454.91" y2="1249.97" gradientUnits="userSpaceOnUse">
<stop stop-color="#878787"/>
<stop offset="0.48" stop-color="white"/>
<stop offset="1" stop-color="#7E7C7C"/>
</linearGradient>
<linearGradient id="paint16_linear_132_40" x1="621.14" y1="1327.22" x2="621.14" y2="1352.88" gradientUnits="userSpaceOnUse">
<stop stop-color="#878787"/>
<stop offset="0.48" stop-color="white"/>
<stop offset="1" stop-color="#7E7C7C"/>
</linearGradient>
<linearGradient id="paint17_linear_132_40" x1="2270.86" y1="1327.22" x2="2270.86" y2="1352.88" gradientUnits="userSpaceOnUse">
<stop stop-color="#878787"/>
<stop offset="0.48" stop-color="white"/>
<stop offset="1" stop-color="#7E7C7C"/>
</linearGradient>
<linearGradient id="paint18_linear_132_40" x1="1447.77" y1="1238.98" x2="1447.77" y2="1466.72" gradientUnits="userSpaceOnUse">
<stop stop-color="#878787"/>
<stop offset="0.48" stop-color="white"/>
<stop offset="1" stop-color="#7E7C7C"/>
</linearGradient>
<clipPath id="clip0_132_40">
<rect width="2892" height="1466" fill="white"/>
</clipPath>
</defs>
</svg>
