<svg width="1977" height="890" viewBox="0 0 1977 890" fill="none" xmlns="http://www.w3.org/2000/svg">
<g clip-path="url(#clip0_95_75)">
<path d="M1.51074 288.369V290.338C1.51074 291.3 1.69384 292.17 2.1058 292.994C2.38044 293.864 2.83817 294.597 3.52477 295.193C4.1656 295.879 4.89798 296.337 5.7219 296.612C6.54582 297.024 7.41551 297.253 8.37676 297.208L10.2077 296.979C11.352 296.658 12.359 296.063 13.2287 295.193L14.2815 293.819C14.9224 292.765 15.197 291.575 15.197 290.338V288.369C15.197 287.407 15.0139 286.537 14.6019 285.713C14.3273 284.843 13.8696 284.11 13.183 283.515C12.5421 282.828 11.8098 282.37 10.9858 282.095C10.1619 281.683 9.29222 281.454 8.33098 281.5L6.50005 281.729C5.35571 282.049 4.34869 282.645 3.479 283.515L2.42621 284.889C1.78538 285.942 1.51074 287.133 1.51074 288.369Z" fill="white"/>
<path d="M152.517 451.124C161.351 451.124 161.351 437.385 152.517 437.385C143.683 437.385 143.683 451.124 152.517 451.124Z" fill="white"/>
<path d="M956.848 770.267H954.513" stroke="white" stroke-miterlimit="10"/>
<path d="M19.0415 813.772C14.8304 813.772 12.4959 809.009 14.9677 805.574C17.3022 802.323 19.4077 798.888 21.376 795.225C25.0836 788.356 28.1962 780.479 30.668 771.549L182.041 259.656C182.682 257.458 184.696 255.992 186.938 255.992H192.248C194.537 255.992 196.551 257.504 197.192 259.702L357.856 813.772C361.61 824.671 366.233 834.333 371.726 842.897C373.923 846.332 371.543 850.819 367.469 850.819H304.347C300.228 850.819 297.893 846.286 300.136 842.851C303.523 837.631 306.224 831.494 308.192 824.488C308.467 823.572 308.467 822.564 308.192 821.603L271.253 690.904C270.795 689.21 269.468 687.882 267.774 687.378L188.907 663.931C186.206 663.107 183.368 664.664 182.544 667.366L147.207 784.738C146.978 785.516 146.887 786.386 147.07 787.211C148.351 794.355 150.823 800.537 154.531 805.803C156.865 809.146 154.302 813.726 150.228 813.726H19.0415V813.772ZM198.199 632.058L250.335 648.315C254.225 649.506 257.887 645.934 256.789 641.996L228.867 543.629C227.448 538.683 220.49 538.637 219.026 543.583L194.811 625.693C194.033 628.395 195.544 631.188 198.199 632.058Z" fill="url(#paint0_linear_95_75)"/>
<path d="M421.436 264.922L410.038 274.997C408.94 275.959 408.299 277.378 408.299 278.844V637.737C408.299 655.597 414.021 670.846 425.51 683.532C436.953 696.217 450.731 702.582 466.889 702.582C483.047 702.582 496.779 696.262 508.268 683.532C519.711 670.846 525.479 655.597 525.479 637.737C525.479 626.059 525.616 614.748 525.937 603.757C526.257 592.812 526.074 581.455 525.479 569.778V363.93C525.479 352.94 523.465 344.055 519.437 337.186C517.743 334.301 515.821 331.691 513.623 329.264C510.648 325.967 512.937 320.7 517.377 320.7H634.832C639.272 320.7 641.423 325.967 638.448 329.264C630.941 337.644 626.73 349.23 625.86 363.93V665.443C625.86 686.05 622.29 705.238 615.149 723.052C608.008 740.912 598.396 756.483 586.312 769.9C574.227 783.272 560.129 793.943 544.017 801.819C527.905 809.696 510.557 813.634 491.973 813.634C473.389 813.634 456.041 809.696 439.928 801.819C423.816 793.943 409.718 783.318 397.634 769.9C385.549 756.528 375.937 740.912 368.796 723.052C361.656 705.238 358.085 686.004 358.085 665.443V278.798C358.085 277.378 357.49 276.005 356.438 275.043L345.452 264.876C342.019 261.717 344.262 255.992 348.931 255.992H418.003C422.717 255.992 424.915 261.854 421.39 264.968L421.436 264.922Z" fill="url(#paint1_linear_95_75)"/>
<path d="M531.521 212.35L593.819 49.1834C594.597 47.2143 596.474 45.8862 598.625 45.8862H876.927C879.079 45.8862 880.955 47.2143 881.734 49.2292L943.116 212.396C944.672 216.563 940.415 220.776 936.387 218.899C936.387 218.899 936.295 218.899 936.25 218.853C932.542 216.792 927.553 212.35 921.373 205.481C915.148 198.612 906.817 187.667 896.29 172.554C881.413 150.619 865.164 131.751 847.495 115.952C831.703 101.847 814.035 91.2688 794.489 84.308C791.102 83.1173 787.532 85.4986 787.532 89.1164L787.074 806.399C787.074 807.269 787.303 808.093 787.669 808.826L806.253 843.355C808.084 846.79 805.612 850.911 801.722 850.911H672.778C668.933 850.911 666.461 846.835 668.201 843.447L686.098 808.826C686.464 808.093 686.647 807.315 686.647 806.49L687.105 89.208C687.105 85.636 683.535 83.2089 680.147 84.3996C660.648 91.3604 643.117 101.939 627.6 116.044C610.251 131.843 593.819 150.71 578.347 172.646C568.414 187.758 560.221 198.749 553.721 205.572C547.221 212.442 542.095 216.884 538.387 218.944C538.387 218.944 538.296 218.944 538.25 218.99C534.222 220.868 529.965 216.7 531.521 212.487V212.35Z" fill="url(#paint2_linear_95_75)"/>
<path d="M833.122 534.882C833.122 496.46 837.287 460.282 845.664 426.303C854.041 392.323 865.484 362.694 880.04 337.278C894.596 311.908 911.486 291.987 930.711 277.607C949.936 263.182 970.671 255.992 993.009 255.992C1015.35 255.992 1036.08 263.182 1055.31 277.607C1074.49 292.033 1091.38 311.908 1105.98 337.278C1120.53 362.648 1132.02 392.323 1140.35 426.303C1148.73 460.282 1152.9 496.46 1152.9 534.882C1152.9 573.304 1148.73 609.482 1140.35 643.461C1131.98 677.441 1120.53 706.933 1105.98 731.982C1091.42 757.032 1074.53 776.907 1055.31 791.653C1036.08 806.399 1015.35 813.772 993.009 813.772C970.671 813.772 949.936 806.399 930.711 791.653C911.486 776.907 894.596 757.032 880.04 731.982C865.484 706.933 853.995 677.441 845.664 643.461C837.287 609.482 833.122 573.304 833.122 534.882ZM992.963 778.785C1001.61 778.785 1009.99 772.465 1018.05 759.734C1026.1 747.049 1033.06 729.555 1038.97 707.253C1044.87 684.951 1049.49 659.077 1052.93 629.54C1056.31 600.048 1058.05 568.495 1058.05 534.882C1058.05 501.269 1056.31 469.716 1052.93 440.224C1049.49 410.733 1044.87 384.813 1038.97 362.511C1033.06 340.209 1026.1 322.715 1018.05 310.03C1009.99 297.345 1001.61 290.979 992.963 290.979C983.671 290.979 975.157 297.345 967.421 310.03C959.686 322.715 953.003 340.209 947.418 362.511C941.834 384.813 937.348 410.733 933.915 440.224C930.482 469.716 928.789 501.315 928.789 534.882C928.789 568.45 930.482 600.094 933.915 629.54C937.302 659.031 941.834 684.951 947.418 707.253C953.003 729.555 959.64 747.049 967.421 759.734C975.157 772.419 983.671 778.785 992.963 778.785Z" fill="url(#paint3_linear_95_75)"/>
<path d="M1171.8 255.947H1282.39C1284.59 255.947 1286.55 257.366 1287.24 259.427L1361.12 479.837C1362.58 484.187 1368.53 484.599 1370.59 480.478L1480.77 258.74C1481.64 257 1483.42 255.901 1485.35 255.901H1547.19C1551.03 255.901 1553.5 259.976 1551.76 263.365L1533.87 297.986C1533.5 298.719 1533.32 299.543 1533.32 300.322V806.216C1533.32 807.04 1533.5 807.864 1533.87 808.551L1551.76 843.172C1553.55 846.607 1551.03 850.636 1547.19 850.636H1469.24C1465.39 850.636 1462.92 846.561 1464.66 843.172L1482.56 808.551C1482.92 807.818 1483.1 806.994 1483.1 806.216V507.222C1483.1 501.818 1475.78 500.078 1473.4 504.932L1385.42 682.158C1383.41 686.234 1377.41 685.867 1375.99 681.517L1296.07 444.941C1294.2 439.446 1286.1 440.774 1286.1 446.59V769.168C1286.1 770.038 1286.32 770.862 1286.69 771.595L1305.27 806.124C1307.11 809.559 1304.63 813.68 1300.74 813.68H1171.8C1167.95 813.68 1165.48 809.604 1167.22 806.216L1185.07 771.595C1185.44 770.862 1185.62 770.038 1185.62 769.259V300.413C1185.62 299.589 1185.44 298.765 1185.07 298.078L1167.22 263.457C1165.44 260.022 1167.95 255.992 1171.8 255.992V255.947Z" fill="url(#paint4_linear_95_75)"/>
<path d="M993.009 571.609C1016.57 571.609 1035.67 552.501 1035.67 528.929C1035.67 505.357 1016.57 486.248 993.009 486.248C969.448 486.248 950.348 505.357 950.348 528.929C950.348 552.501 969.448 571.609 993.009 571.609Z" fill="url(#paint5_linear_95_75)"/>
<path d="M993.009 550.269C1004.79 550.269 1014.34 540.715 1014.34 528.929C1014.34 517.143 1004.79 507.588 993.009 507.588C981.228 507.588 971.678 517.143 971.678 528.929C971.678 540.715 981.228 550.269 993.009 550.269Z" fill="white"/>
<path d="M998.456 476.585H987.928V487.118H998.456V476.585Z" fill="url(#paint6_linear_95_75)"/>
<path d="M998.456 570.739H987.928V581.272H998.456V570.739Z" fill="url(#paint7_linear_95_75)"/>
<path d="M1045.19 530.348V519.815H1034.66V530.348H1045.19Z" fill="url(#paint8_linear_95_75)"/>
<path d="M951.675 528.929V518.396H941.147V528.929H951.675Z" fill="url(#paint9_linear_95_75)"/>
<path d="M958.219 504.553L965.09 496.573L957.113 489.699L950.242 497.679L958.219 504.553Z" fill="url(#paint10_linear_95_75)"/>
<path d="M1030.09 566.493L1036.96 558.513L1028.99 551.639L1022.12 559.619L1030.09 566.493Z" fill="url(#paint11_linear_95_75)"/>
<path d="M1028.4 505.226L1036.38 498.352L1029.51 490.372L1021.53 497.246L1028.4 505.226Z" fill="url(#paint12_linear_95_75)"/>
<path d="M956.381 567.294L964.357 560.42L957.487 552.44L949.51 559.314L956.381 567.294Z" fill="url(#paint13_linear_95_75)"/>
<path d="M993.192 523.662C987.058 523.662 979.872 527.189 979.872 529.799C979.872 532.409 987.058 535.89 993.192 535.89C999.325 535.89 1006.15 532.363 1006.15 529.799C1006.15 527.234 999.325 523.662 993.192 523.662Z" fill="url(#paint14_linear_95_75)"/>
<path d="M993.375 533.691C995.397 533.691 997.037 532.051 997.037 530.028C997.037 528.004 995.397 526.364 993.375 526.364C991.352 526.364 989.713 528.004 989.713 530.028C989.713 532.051 991.352 533.691 993.375 533.691Z" fill="white"/>
<path d="M1947.93 854.3C1942.94 843.126 1932.37 832.685 1924.09 817.344L1813.5 44.375C1803.29 37.9638 1778.66 22.9889 1768.32 16.6235C1764.29 14.1505 1760.45 10.029 1755.09 5.72431C1746.62 -1.14489 1734.45 0.0915642 1729.5 0.0457695C1726.76 0.183154 1723.05 0.503717 1718.7 1.23643C1718.7 1.23643 1711.83 4.0757 1707.44 8.19723C1697.78 17.2188 1631.23 97.7716 1616.67 107.48C1604.68 115.494 1604.13 94.7034 1587.83 92.8716C1581.98 92.2305 1573.83 92.78 1567.97 94.8408C1547.14 102.076 1516.38 137.384 1509.15 145.123C1487.32 168.524 1361.39 286.995 1427.35 256.038C1471.39 235.385 1519.86 215.189 1542.66 204.382C1572.27 190.369 1577.67 255.992 1605.78 248.803C1631.09 243.719 1656.4 178.645 1665.01 188.766C1670.73 195.543 1671.28 193.254 1670.73 195.543C1640.98 397.773 1607.2 572.8 1577.44 775.029C1574.97 784.005 1571.86 791.928 1568.11 798.797C1564.4 805.666 1560.05 811.848 1555.11 817.298H1708.49C1700.44 810.429 1695.49 801.178 1693.62 789.5L1730.78 665.992L1817.25 691.729L1855.38 826.548C1852.27 838.226 1847.32 847.477 1840.5 854.346H1947.98L1947.93 854.3ZM1618.5 560.573L1621.98 544.087L1749.64 584.066L1744.7 599.132L1618.5 560.573ZM1740.03 634.073L1770.7 530.119L1806.04 654.635L1740.03 634.073ZM1801 613.099L1794.96 596.018L1893.51 626.288L1895.57 640.576L1801.05 613.054L1801 613.099Z" fill="url(#paint15_linear_95_75)"/>
</g>
<defs>
<linearGradient id="paint0_linear_95_75" x1="193.26" y1="255.992" x2="193.26" y2="850.82" gradientUnits="userSpaceOnUse">
<stop stop-color="#878787"/>
<stop offset="0.48" stop-color="white"/>
<stop offset="1" stop-color="#7E7C7C"/>
</linearGradient>
<linearGradient id="paint1_linear_95_75" x1="491.806" y1="255.992" x2="491.806" y2="813.634" gradientUnits="userSpaceOnUse">
<stop stop-color="#878787"/>
<stop offset="0.48" stop-color="white"/>
<stop offset="1" stop-color="#7E7C7C"/>
</linearGradient>
<linearGradient id="paint2_linear_95_75" x1="737.318" y1="45.8862" x2="737.318" y2="850.911" gradientUnits="userSpaceOnUse">
<stop stop-color="#878787"/>
<stop offset="0.48" stop-color="white"/>
<stop offset="1" stop-color="#7E7C7C"/>
</linearGradient>
<linearGradient id="paint3_linear_95_75" x1="993.009" y1="255.992" x2="993.009" y2="813.772" gradientUnits="userSpaceOnUse">
<stop stop-color="#878787"/>
<stop offset="0.48" stop-color="white"/>
<stop offset="1" stop-color="#7E7C7C"/>
</linearGradient>
<linearGradient id="paint4_linear_95_75" x1="1359.49" y1="255.901" x2="1359.49" y2="850.636" gradientUnits="userSpaceOnUse">
<stop stop-color="#878787"/>
<stop offset="0.48" stop-color="white"/>
<stop offset="1" stop-color="#7E7C7C"/>
</linearGradient>
<linearGradient id="paint5_linear_95_75" x1="993.008" y1="486.248" x2="993.008" y2="571.609" gradientUnits="userSpaceOnUse">
<stop stop-color="#878787"/>
<stop offset="0.48" stop-color="white"/>
<stop offset="1" stop-color="#7E7C7C"/>
</linearGradient>
<linearGradient id="paint6_linear_95_75" x1="993.192" y1="476.585" x2="993.192" y2="487.118" gradientUnits="userSpaceOnUse">
<stop stop-color="#878787"/>
<stop offset="0.48" stop-color="white"/>
<stop offset="1" stop-color="#7E7C7C"/>
</linearGradient>
<linearGradient id="paint7_linear_95_75" x1="993.192" y1="570.739" x2="993.192" y2="581.272" gradientUnits="userSpaceOnUse">
<stop stop-color="#878787"/>
<stop offset="0.48" stop-color="white"/>
<stop offset="1" stop-color="#7E7C7C"/>
</linearGradient>
<linearGradient id="paint8_linear_95_75" x1="1045.19" y1="525.082" x2="1034.66" y2="525.082" gradientUnits="userSpaceOnUse">
<stop stop-color="#878787"/>
<stop offset="0.48" stop-color="white"/>
<stop offset="1" stop-color="#7E7C7C"/>
</linearGradient>
<linearGradient id="paint9_linear_95_75" x1="951.675" y1="523.662" x2="941.147" y2="523.662" gradientUnits="userSpaceOnUse">
<stop stop-color="#878787"/>
<stop offset="0.48" stop-color="white"/>
<stop offset="1" stop-color="#7E7C7C"/>
</linearGradient>
<linearGradient id="paint10_linear_95_75" x1="961.654" y1="500.563" x2="953.675" y2="493.693" gradientUnits="userSpaceOnUse">
<stop stop-color="#878787"/>
<stop offset="0.48" stop-color="white"/>
<stop offset="1" stop-color="#7E7C7C"/>
</linearGradient>
<linearGradient id="paint11_linear_95_75" x1="1033.53" y1="562.503" x2="1025.55" y2="555.633" gradientUnits="userSpaceOnUse">
<stop stop-color="#878787"/>
<stop offset="0.48" stop-color="white"/>
<stop offset="1" stop-color="#7E7C7C"/>
</linearGradient>
<linearGradient id="paint12_linear_95_75" x1="1032.39" y1="501.789" x2="1025.51" y2="493.812" gradientUnits="userSpaceOnUse">
<stop stop-color="#878787"/>
<stop offset="0.48" stop-color="white"/>
<stop offset="1" stop-color="#7E7C7C"/>
</linearGradient>
<linearGradient id="paint13_linear_95_75" x1="960.369" y1="563.857" x2="953.495" y2="555.88" gradientUnits="userSpaceOnUse">
<stop stop-color="#878787"/>
<stop offset="0.48" stop-color="white"/>
<stop offset="1" stop-color="#7E7C7C"/>
</linearGradient>
<linearGradient id="paint14_linear_95_75" x1="993.009" y1="523.662" x2="993.009" y2="535.89" gradientUnits="userSpaceOnUse">
<stop stop-color="#878787"/>
<stop offset="0.48" stop-color="white"/>
<stop offset="1" stop-color="#7E7C7C"/>
</linearGradient>
<linearGradient id="paint15_linear_95_75" x1="1678.2" y1="-0.0136719" x2="1678.2" y2="854.346" gradientUnits="userSpaceOnUse">
<stop stop-color="#878787"/>
<stop offset="0.48" stop-color="white"/>
<stop offset="1" stop-color="#7E7C7C"/>
</linearGradient>
<clipPath id="clip0_95_75">
<rect width="1977" height="890" fill="white"/>
</clipPath>
</defs>
</svg>
