<svg width="592" height="337" viewBox="0 0 592 337" fill="none" xmlns="http://www.w3.org/2000/svg">
<g clip-path="url(#clip0_94_43)">
<path d="M0.452148 86.3059V86.8953C0.452148 87.1831 0.506975 87.4435 0.630334 87.6902C0.712573 87.9506 0.849639 88.1699 1.05524 88.3481C1.24713 88.5537 1.46643 88.6907 1.71315 88.773C1.95987 88.8963 2.22029 88.9648 2.50813 88.9511L3.05639 88.8826C3.39906 88.7867 3.7006 88.6085 3.96103 88.3481L4.27628 87.9369C4.46817 87.6217 4.55041 87.2653 4.55041 86.8953V86.3059C4.55041 86.0181 4.49558 85.7577 4.37222 85.511C4.28999 85.2505 4.15292 85.0313 3.94732 84.8531C3.75543 84.6475 3.53612 84.5104 3.28941 84.4282C3.04269 84.3048 2.78226 84.2363 2.49443 84.25L1.94616 84.3185C1.6035 84.4145 1.30196 84.5927 1.04153 84.8531L0.72628 85.2643C0.534388 85.5795 0.452148 85.9358 0.452148 86.3059Z" fill="white"/>
<path d="M45.6701 135.017C48.3154 135.017 48.3154 130.905 45.6701 130.905C43.0247 130.905 43.0247 135.017 45.6701 135.017Z" fill="white"/>
<path d="M286.522 230.533H285.823" stroke="white" stroke-miterlimit="10"/>
<path d="M5.70207 243.553C4.44106 243.553 3.74203 242.128 4.48218 241.1C5.18122 240.127 5.81172 239.099 6.4011 238.002C7.51133 235.947 8.44338 233.589 9.18353 230.917L54.5111 77.7123C54.703 77.0544 55.3061 76.6158 55.9777 76.6158H57.5677C58.253 76.6158 58.8561 77.0681 59.048 77.726L107.158 243.553C108.282 246.815 109.666 249.707 111.311 252.27C111.969 253.298 111.256 254.641 110.036 254.641H91.135C89.9015 254.641 89.2024 253.285 89.874 252.257C90.8883 250.694 91.697 248.858 92.2864 246.761C92.3686 246.486 92.3686 246.185 92.2864 245.897L81.2252 206.781C81.0881 206.273 80.6907 205.876 80.1835 205.725L56.5671 198.708C55.7584 198.461 54.9086 198.927 54.6619 199.736L44.0804 234.864C44.0119 235.097 43.9845 235.357 44.0393 235.604C44.4231 237.742 45.1632 239.592 46.2735 241.169C46.9725 242.169 46.2049 243.54 44.9851 243.54H5.70207V243.553ZM59.3495 189.168L74.9613 194.034C76.1264 194.39 77.2229 193.321 76.8939 192.143L68.5329 162.702C68.108 161.222 66.0246 161.208 65.586 162.689L58.3353 187.263C58.1022 188.072 58.5546 188.908 59.3495 189.168Z" fill="url(#paint0_linear_94_43)"/>
<path d="M126.196 79.2885L122.783 82.3038C122.454 82.5916 122.262 83.0165 122.262 83.4551V190.868C122.262 196.213 123.976 200.777 127.416 204.574C130.843 208.37 134.968 210.276 139.807 210.276C144.645 210.276 148.757 208.384 152.198 204.574C155.624 200.777 157.351 196.213 157.351 190.868C157.351 187.373 157.392 183.988 157.488 180.698C157.584 177.423 157.529 174.023 157.351 170.528V108.921C157.351 105.631 156.748 102.972 155.542 100.916C155.035 100.053 154.459 99.2717 153.801 98.5452C152.91 97.5584 153.596 95.9822 154.925 95.9822H190.096C191.426 95.9822 192.07 97.5584 191.179 98.5452C188.931 101.053 187.67 104.521 187.41 108.921V199.16C187.41 205.328 186.341 211.07 184.202 216.402C182.064 221.747 179.186 226.407 175.567 230.423C171.949 234.425 167.727 237.619 162.902 239.976C158.078 242.334 152.883 243.512 147.318 243.512C141.753 243.512 136.558 242.334 131.734 239.976C126.909 237.619 122.687 234.439 119.069 230.423C115.45 226.421 112.572 221.747 110.434 216.402C108.295 211.07 107.226 205.314 107.226 199.16V83.4414C107.226 83.0165 107.048 82.6053 106.733 82.3175L103.443 79.2748C102.415 78.3291 103.087 76.6158 104.485 76.6158H125.168C126.58 76.6158 127.238 78.3702 126.182 79.3022L126.196 79.2885Z" fill="url(#paint1_linear_94_43)"/>
<path d="M159.16 63.5541L177.815 14.7201C178.048 14.1307 178.61 13.7333 179.254 13.7333H262.59C263.234 13.7333 263.796 14.1307 264.029 14.7338L282.41 63.5678C282.876 64.8151 281.601 66.076 280.395 65.5141C280.395 65.5141 280.368 65.5141 280.354 65.5004C279.244 64.8836 277.75 63.5541 275.899 61.4982C274.035 59.4424 271.541 56.1667 268.388 51.6437C263.933 45.0786 259.068 39.4318 253.777 34.7033C249.048 30.4819 243.757 27.3158 237.905 25.2325C236.89 24.8761 235.821 25.5889 235.821 26.6716L235.684 241.347C235.684 241.607 235.753 241.854 235.862 242.073L241.427 252.407C241.975 253.435 241.235 254.669 240.07 254.669H201.459C200.308 254.669 199.567 253.449 200.088 252.435L205.447 242.073C205.557 241.854 205.612 241.621 205.612 241.374L205.749 26.699C205.749 25.63 204.68 24.9036 203.666 25.2599C197.827 27.3432 192.577 30.5093 187.931 34.7307C182.736 39.4592 177.815 45.106 173.182 51.6711C170.208 56.1941 167.754 59.4835 165.808 61.5257C163.862 63.5815 162.327 64.911 161.216 65.5278C161.216 65.5278 161.189 65.5278 161.175 65.5415C159.969 66.1034 158.694 64.8562 159.16 63.5952V63.5541Z" fill="url(#paint2_linear_94_43)"/>
<path d="M249.473 160.085C249.473 148.585 250.72 137.758 253.229 127.588C255.737 117.418 259.164 108.551 263.522 100.944C267.881 93.3507 272.939 87.3887 278.696 83.085C284.452 78.7677 290.661 76.6158 297.35 76.6158C304.039 76.6158 310.248 78.7677 316.005 83.085C321.748 87.4024 326.806 93.3507 331.178 100.944C335.537 108.537 338.977 117.418 341.472 127.588C343.98 137.758 345.227 148.585 345.227 160.085C345.227 171.584 343.98 182.411 341.472 192.581C338.963 202.751 335.537 211.578 331.178 219.075C326.819 226.572 321.762 232.52 316.005 236.933C310.248 241.347 304.039 243.553 297.35 243.553C290.661 243.553 284.452 241.347 278.696 236.933C272.939 232.52 267.881 226.572 263.522 219.075C259.164 211.578 255.723 202.751 253.229 192.581C250.72 182.411 249.473 171.584 249.473 160.085ZM297.336 233.082C299.927 233.082 302.435 231.191 304.848 227.38C307.26 223.584 309.343 218.348 311.112 211.674C312.88 204.999 314.264 197.255 315.292 188.415C316.306 179.588 316.827 170.145 316.827 160.085C316.827 150.024 316.306 140.581 315.292 131.755C314.264 122.928 312.88 115.17 311.112 108.496C309.343 101.821 307.26 96.5853 304.848 92.7888C302.435 88.9922 299.927 87.0871 297.336 87.0871C294.554 87.0871 292.005 88.9922 289.688 92.7888C287.372 96.5853 285.371 101.821 283.698 108.496C282.026 115.17 280.683 122.928 279.655 131.755C278.627 140.581 278.12 150.038 278.12 160.085C278.12 170.131 278.627 179.602 279.655 188.415C280.669 197.241 282.026 204.999 283.698 211.674C285.371 218.348 287.358 223.584 289.688 227.38C292.005 231.177 294.554 233.082 297.336 233.082Z" fill="url(#paint3_linear_94_43)"/>
<path d="M350.888 76.6021H384.003C384.661 76.6021 385.25 77.027 385.456 77.6438L407.578 143.61C408.017 144.912 409.799 145.036 410.415 143.802L443.407 77.4382C443.667 76.9174 444.202 76.5884 444.778 76.5884H463.295C464.447 76.5884 465.187 77.8083 464.666 78.8225L459.307 89.1841C459.197 89.4034 459.142 89.6501 459.142 89.8831V241.292C459.142 241.539 459.197 241.785 459.307 241.991L464.666 252.353C465.2 253.38 464.447 254.587 463.295 254.587H439.953C438.802 254.587 438.061 253.367 438.582 252.353L443.942 241.991C444.051 241.772 444.106 241.525 444.106 241.292V151.806C444.106 150.189 441.913 149.668 441.2 151.121L414.856 204.163C414.253 205.383 412.458 205.273 412.033 203.971L388.101 133.166C387.539 131.522 385.113 131.919 385.113 133.66V230.204C385.113 230.464 385.182 230.711 385.291 230.93L390.856 241.264C391.404 242.292 390.664 243.526 389.499 243.526H350.888C349.736 243.526 348.996 242.306 349.517 241.292L354.863 230.93C354.972 230.711 355.027 230.464 355.027 230.231V89.9105C355.027 89.6638 354.972 89.4171 354.863 89.2115L349.517 78.8499C348.983 77.822 349.736 76.6159 350.888 76.6159V76.6021Z" fill="url(#paint4_linear_94_43)"/>
<path d="M297.35 171.077C304.405 171.077 310.125 165.358 310.125 158.303C310.125 151.248 304.405 145.529 297.35 145.529C290.295 145.529 284.576 151.248 284.576 158.303C284.576 165.358 290.295 171.077 297.35 171.077Z" fill="url(#paint5_linear_94_43)"/>
<path d="M297.35 164.69C300.878 164.69 303.737 161.83 303.737 158.303C303.737 154.775 300.878 151.916 297.35 151.916C293.823 151.916 290.963 154.775 290.963 158.303C290.963 161.83 293.823 164.69 297.35 164.69Z" fill="white"/>
<path d="M298.981 142.637H295.829V145.789H298.981V142.637Z" fill="url(#paint6_linear_94_43)"/>
<path d="M298.981 170.816H295.829V173.969H298.981V170.816Z" fill="url(#paint7_linear_94_43)"/>
<path d="M312.976 158.728V155.575H309.823V158.728H312.976Z" fill="url(#paint8_linear_94_43)"/>
<path d="M284.973 158.303V155.151H281.821V158.303H284.973Z" fill="url(#paint9_linear_94_43)"/>
<path d="M286.933 151.007L288.99 148.619L286.602 146.562L284.544 148.95L286.933 151.007Z" fill="url(#paint10_linear_94_43)"/>
<path d="M308.455 169.545L310.513 167.157L308.124 165.1L306.067 167.488L308.455 169.545Z" fill="url(#paint11_linear_94_43)"/>
<path d="M307.948 151.209L310.336 149.152L308.279 146.763L305.89 148.82L307.948 151.209Z" fill="url(#paint12_linear_94_43)"/>
<path d="M286.382 169.785L288.771 167.728L286.713 165.339L284.324 167.397L286.382 169.785Z" fill="url(#paint13_linear_94_43)"/>
<path d="M297.405 156.727C295.568 156.727 293.417 157.782 293.417 158.563C293.417 159.345 295.568 160.386 297.405 160.386C299.242 160.386 301.284 159.331 301.284 158.563C301.284 157.796 299.242 156.727 297.405 156.727Z" fill="url(#paint14_linear_94_43)"/>
<path d="M297.46 159.728C298.065 159.728 298.556 159.237 298.556 158.632C298.556 158.026 298.065 157.535 297.46 157.535C296.854 157.535 296.363 158.026 296.363 158.632C296.363 159.237 296.854 159.728 297.46 159.728Z" fill="white"/>
<path d="M583.296 255.683C581.802 252.339 578.636 249.214 576.155 244.622L543.04 13.281C539.984 11.3622 532.61 6.88034 529.512 4.97523C528.306 4.23511 527.154 3.00158 525.551 1.71323C523.015 -0.342652 519.369 0.0274067 517.889 0.0137008C517.066 0.0548184 515.956 0.15076 514.654 0.370054C514.654 0.370054 512.598 1.21982 511.282 2.45335C508.39 5.1534 488.461 29.262 484.102 32.1677C480.511 34.5662 480.347 28.3437 475.467 27.7955C473.713 27.6036 471.273 27.7681 469.518 28.3849C463.282 30.5504 454.071 41.1176 451.905 43.4339C445.367 50.4376 407.661 85.8947 427.412 76.6295C440.597 70.4482 455.113 64.4039 461.939 61.1693C470.807 56.9753 472.424 76.6158 480.84 74.464C488.42 72.9426 495.999 53.4666 498.576 56.4956C500.29 58.5241 500.454 57.8388 500.29 58.5241C491.38 119.049 481.265 171.433 472.356 231.958C471.615 234.645 470.683 237.016 469.559 239.072C468.449 241.127 467.147 242.978 465.667 244.609H511.597C509.185 242.553 507.705 239.784 507.143 236.289L518.273 199.324L544.164 207.027L555.582 247.377C554.65 250.872 553.169 253.641 551.127 255.697H583.31L583.296 255.683ZM484.65 167.774L485.692 162.839L523.92 174.805L522.439 179.314L484.65 167.774ZM521.041 189.772L530.225 158.659L540.806 195.925L521.041 189.772ZM539.298 183.494L537.489 178.382L566.999 187.441L567.616 191.718L539.312 183.48L539.298 183.494Z" fill="url(#paint15_linear_94_43)"/>
<path d="M254.298 271.5H0V276.749H254.298V271.5Z" fill="url(#paint16_linear_94_43)"/>
<path d="M592 271.5H337.702V276.749H592V271.5Z" fill="url(#paint17_linear_94_43)"/>
<path d="M321.145 269.266C320.871 281.71 310.879 291.716 298.556 291.716C286.234 291.716 275.941 281.436 275.941 268.745C275.941 262.865 278.134 257.506 281.725 253.449C275.296 258.109 271.088 265.729 271.088 274.364C271.088 288.536 282.41 300.035 296.363 300.035C310.317 300.035 321.638 288.536 321.638 274.364C321.638 272.61 321.46 270.91 321.131 269.252L321.145 269.266Z" fill="url(#paint18_linear_94_43)"/>
<path d="M98 311H113.09V316.19C112.97 315.63 112.85 315.11 112.73 314.63C112.61 314.23 112.48 313.85 112.34 313.49C112.2 313.11 112.05 312.86 111.89 312.74C111.67 312.58 111.34 312.5 110.9 312.5C110.48 312.5 110.03 312.57 109.55 312.71C109.07 312.83 108.65 313 108.29 313.22C108.03 313.4 107.82 313.6 107.66 313.82C107.52 314.02 107.41 314.23 107.33 314.45C107.27 314.65 107.23 314.85 107.21 315.05C107.19 315.23 107.18 315.38 107.18 315.5V330.8L108.08 331.97H103.01L103.94 330.8V315.5C103.94 314.98 103.83 314.53 103.61 314.15C103.41 313.77 103.14 313.46 102.8 313.22C102.46 312.98 102.06 312.8 101.6 312.68C101.16 312.56 100.71 312.5 100.25 312.5C99.75 312.5 99.41 312.58 99.23 312.74C99.07 312.86 98.91 313.11 98.75 313.49C98.61 313.85 98.49 314.23 98.39 314.63C98.25 315.11 98.12 315.63 98 316.19V311Z" fill="white"/>
<path d="M118.647 311.54H121.887C123.347 311.54 124.567 311.8 125.547 312.32C126.527 312.82 127.287 313.47 127.827 314.27C128.387 315.05 128.717 315.92 128.817 316.88C128.937 317.82 128.857 318.74 128.577 319.64C128.317 320.52 127.857 321.32 127.197 322.04C126.537 322.76 125.707 323.27 124.707 323.57C125.207 323.97 125.707 324.52 126.207 325.22C126.707 325.9 127.207 326.64 127.707 327.44C128.207 328.24 128.697 329.05 129.177 329.87C129.677 330.69 130.157 331.43 130.617 332.09C131.097 332.75 131.557 333.29 131.997 333.71C132.437 334.13 132.867 334.34 133.287 334.34C133.667 334.34 133.997 334.17 134.277 333.83C134.597 333.51 134.867 333.32 135.087 333.26C135.207 333.22 135.317 333.2 135.417 333.2C135.377 333.28 135.357 333.38 135.357 333.5C135.337 333.6 135.327 333.74 135.327 333.92C135.347 334.1 135.387 334.32 135.447 334.58C135.507 334.84 135.517 335.13 135.477 335.45C135.437 335.79 135.317 336.11 135.117 336.41C134.937 336.71 134.667 336.96 134.307 337.16C133.947 337.36 133.487 337.46 132.927 337.46C131.987 337.48 131.167 337.22 130.467 336.68C129.787 336.16 129.177 335.48 128.637 334.64C128.097 333.8 127.597 332.87 127.137 331.85C126.677 330.81 126.207 329.78 125.727 328.76C125.267 327.74 124.767 326.8 124.227 325.94C123.687 325.06 123.057 324.36 122.337 323.84C122.257 323.82 122.177 323.81 122.097 323.81C122.037 323.81 121.967 323.8 121.887 323.78V328.67L122.787 329.96H117.717L118.647 328.67V313.61C118.427 313.65 118.207 313.72 117.987 313.82C117.767 313.92 117.567 314.07 117.387 314.27C117.187 314.49 116.977 314.75 116.757 315.05C116.537 315.33 116.347 315.66 116.187 316.04C116.027 316.42 115.927 316.85 115.887 317.33C115.847 317.81 115.897 318.35 116.037 318.95C116.197 319.53 116.237 320.03 116.157 320.45C116.097 320.85 115.987 321.18 115.827 321.44C115.647 321.74 115.417 321.98 115.137 322.16C115.257 321.94 115.307 321.72 115.287 321.5C115.287 321.28 115.217 321.05 115.077 320.81C114.957 320.57 114.697 320.34 114.297 320.12C113.737 319.78 113.337 319.33 113.097 318.77C112.857 318.21 112.757 317.62 112.797 317C112.817 316.36 112.967 315.72 113.247 315.08C113.547 314.42 113.947 313.83 114.447 313.31C114.967 312.79 115.577 312.37 116.277 312.05C116.997 311.71 117.787 311.54 118.647 311.54ZM121.887 313.61V322.13C122.867 322.03 123.677 321.77 124.317 321.35C124.977 320.91 125.467 320.4 125.787 319.82C126.107 319.22 126.267 318.59 126.267 317.93C126.267 317.25 126.107 316.61 125.787 316.01C125.467 315.41 124.977 314.89 124.317 314.45C123.677 314.01 122.867 313.73 121.887 313.61Z" fill="white"/>
<path d="M130.727 320.21C130.667 320.65 130.687 321.04 130.787 321.38C130.887 321.66 131.067 321.89 131.327 322.07C131.587 322.25 132.007 322.29 132.587 322.19C132.807 322.13 133.027 322.1 133.247 322.1L134.897 312.26C134.897 311.98 134.827 311.74 134.687 311.54C134.547 311.32 134.307 311.14 133.967 311H138.197C138.317 311.6 138.467 312.4 138.647 313.4C138.847 314.4 139.057 315.5 139.277 316.7C139.517 317.9 139.767 319.13 140.027 320.39C140.307 321.65 140.577 322.84 140.837 323.96C141.117 325.06 141.397 326.04 141.677 326.9C141.957 327.74 142.227 328.33 142.487 328.67H137.957L138.407 328.04L137.957 325.94C137.757 325.48 137.517 325.07 137.237 324.71C136.997 324.39 136.687 324.1 136.307 323.84C135.947 323.58 135.517 323.44 135.017 323.42C134.957 323.42 134.887 323.42 134.807 323.42C134.747 323.42 134.687 323.43 134.627 323.45L133.127 332.39L133.697 333.2H130.847C130.947 333.1 131.057 332.94 131.177 332.72C131.317 332.5 131.437 332.28 131.537 332.06L132.887 324.23C132.267 324.63 131.697 324.83 131.177 324.83C130.677 324.83 130.267 324.66 129.947 324.32C129.647 323.96 129.467 323.54 129.407 323.06C129.347 322.58 129.417 322.08 129.617 321.56C129.837 321.02 130.207 320.57 130.727 320.21ZM137.507 323.63L135.917 315.8L134.867 322.1C136.027 322.28 136.907 322.79 137.507 323.63Z" fill="white"/>
<path d="M140.662 311.03H144.892C144.632 311.13 144.432 311.26 144.292 311.42C144.172 311.56 144.142 311.74 144.202 311.96L149.302 328.73L152.302 314.48C152.302 314.24 152.152 314.02 151.852 313.82H154.822C154.602 313.98 154.402 314.17 154.222 314.39C154.042 314.61 153.892 314.9 153.772 315.26L150.262 331.88L150.322 332H147.082L141.082 312.35C140.902 311.81 140.572 311.36 140.092 311L140.662 311.03Z" fill="white"/>
<path d="M160.219 311.81H169.669V316.52C169.509 316 169.309 315.54 169.069 315.14C168.849 314.8 168.569 314.49 168.229 314.21C167.909 313.91 167.509 313.76 167.029 313.76H163.429V319.19H166.579L167.209 318.32V322.04L166.549 321.14H163.459V328.1C163.819 328.06 164.349 328.16 165.049 328.4C165.769 328.62 166.619 329.2 167.599 330.14C169.039 331.54 170.259 332.55 171.259 333.17C172.279 333.79 173.119 334.06 173.779 333.98C174.119 333.94 174.379 333.84 174.559 333.68C174.759 333.52 174.909 333.36 175.009 333.2C175.129 333.02 175.209 332.81 175.249 332.57C175.169 333.33 175.009 334 174.769 334.58C174.549 335.1 174.219 335.57 173.779 335.99C173.339 336.43 172.729 336.66 171.949 336.68C171.169 336.72 170.479 336.53 169.879 336.11C169.279 335.71 168.729 335.22 168.229 334.64C167.729 334.06 167.249 333.45 166.789 332.81C166.329 332.17 165.849 331.63 165.349 331.19C164.849 330.77 164.349 330.44 163.849 330.2C163.369 329.96 162.929 329.79 162.529 329.69C162.149 329.59 161.829 329.53 161.569 329.51C161.329 329.49 161.199 329.48 161.179 329.48H159.289L160.219 328.22V313.79C159.999 313.83 159.779 313.9 159.559 314C159.339 314.1 159.139 314.24 158.959 314.42C158.759 314.62 158.549 314.87 158.329 315.17C158.109 315.45 157.919 315.77 157.759 316.13C157.599 316.49 157.499 316.9 157.459 317.36C157.419 317.82 157.469 318.34 157.609 318.92C157.769 319.48 157.809 319.96 157.729 320.36C157.669 320.74 157.559 321.06 157.399 321.32C157.219 321.6 156.989 321.83 156.709 322.01C156.829 321.79 156.879 321.57 156.859 321.35C156.859 321.15 156.789 320.94 156.649 320.72C156.529 320.48 156.269 320.25 155.869 320.03C155.309 319.71 154.909 319.29 154.669 318.77C154.429 318.23 154.329 317.66 154.369 317.06C154.389 316.44 154.539 315.82 154.819 315.2C155.119 314.58 155.519 314.02 156.019 313.52C156.539 313.02 157.149 312.61 157.849 312.29C158.569 311.97 159.359 311.81 160.219 311.81Z" fill="white"/>
<path d="M175.395 311.54H178.635C180.095 311.54 181.315 311.8 182.295 312.32C183.275 312.82 184.035 313.47 184.575 314.27C185.135 315.05 185.465 315.92 185.565 316.88C185.685 317.82 185.605 318.74 185.325 319.64C185.065 320.52 184.605 321.32 183.945 322.04C183.285 322.76 182.455 323.27 181.455 323.57C181.955 323.97 182.455 324.52 182.955 325.22C183.455 325.9 183.955 326.64 184.455 327.44C184.955 328.24 185.445 329.05 185.925 329.87C186.425 330.69 186.905 331.43 187.365 332.09C187.845 332.75 188.305 333.29 188.745 333.71C189.185 334.13 189.615 334.34 190.035 334.34C190.415 334.34 190.745 334.17 191.025 333.83C191.345 333.51 191.615 333.32 191.835 333.26C191.955 333.22 192.065 333.2 192.165 333.2C192.125 333.28 192.105 333.38 192.105 333.5C192.085 333.6 192.075 333.74 192.075 333.92C192.095 334.1 192.135 334.32 192.195 334.58C192.255 334.84 192.265 335.13 192.225 335.45C192.185 335.79 192.065 336.11 191.865 336.41C191.685 336.71 191.415 336.96 191.055 337.16C190.695 337.36 190.235 337.46 189.675 337.46C188.735 337.48 187.915 337.22 187.215 336.68C186.535 336.16 185.925 335.48 185.385 334.64C184.845 333.8 184.345 332.87 183.885 331.85C183.425 330.81 182.955 329.78 182.475 328.76C182.015 327.74 181.515 326.8 180.975 325.94C180.435 325.06 179.805 324.36 179.085 323.84C179.005 323.82 178.925 323.81 178.845 323.81C178.785 323.81 178.715 323.8 178.635 323.78V328.67L179.535 329.96H174.465L175.395 328.67V313.61C175.175 313.65 174.955 313.72 174.735 313.82C174.515 313.92 174.315 314.07 174.135 314.27C173.935 314.49 173.725 314.75 173.505 315.05C173.285 315.33 173.095 315.66 172.935 316.04C172.775 316.42 172.675 316.85 172.635 317.33C172.595 317.81 172.645 318.35 172.785 318.95C172.945 319.53 172.985 320.03 172.905 320.45C172.845 320.85 172.735 321.18 172.575 321.44C172.395 321.74 172.165 321.98 171.885 322.16C172.005 321.94 172.055 321.72 172.035 321.5C172.035 321.28 171.965 321.05 171.825 320.81C171.705 320.57 171.445 320.34 171.045 320.12C170.485 319.78 170.085 319.33 169.845 318.77C169.605 318.21 169.505 317.62 169.545 317C169.565 316.36 169.715 315.72 169.995 315.08C170.295 314.42 170.695 313.83 171.195 313.31C171.715 312.79 172.325 312.37 173.025 312.05C173.745 311.71 174.535 311.54 175.395 311.54ZM178.635 313.61V322.13C179.615 322.03 180.425 321.77 181.065 321.35C181.725 320.91 182.215 320.4 182.535 319.82C182.855 319.22 183.015 318.59 183.015 317.93C183.015 317.25 182.855 316.61 182.535 316.01C182.215 315.41 181.725 314.89 181.065 314.45C180.425 314.01 179.615 313.73 178.635 313.61Z" fill="white"/>
<path d="M186.852 323.18C186.992 322.9 187.072 322.64 187.092 322.4C187.112 322.16 187.002 321.9 186.762 321.62C187.122 321.58 187.472 321.63 187.812 321.77C188.092 321.87 188.382 322.07 188.682 322.37C189.002 322.67 189.252 323.12 189.432 323.72C189.632 324.32 189.742 324.98 189.762 325.7C189.782 326.4 189.842 327.06 189.942 327.68C190.042 328.28 190.242 328.78 190.542 329.18C190.842 329.56 191.372 329.73 192.132 329.69C192.892 329.65 193.442 329.42 193.782 329C194.142 328.56 194.352 328.05 194.412 327.47C194.492 326.87 194.452 326.26 194.292 325.64C194.132 325 193.912 324.47 193.632 324.05C193.372 323.63 192.982 323.15 192.462 322.61C191.962 322.05 191.422 321.48 190.842 320.9C190.282 320.3 189.732 319.71 189.192 319.13C188.652 318.55 188.212 318.01 187.872 317.51C187.532 317.01 187.292 316.46 187.152 315.86C187.032 315.24 187.032 314.64 187.152 314.06C187.272 313.48 187.522 312.95 187.902 312.47C188.282 311.99 188.812 311.62 189.492 311.36C190.032 311.16 190.522 311.06 190.962 311.06C191.342 311.06 191.662 311.12 191.922 311.24C192.202 311.36 192.442 311.49 192.642 311.63C192.842 311.75 193.012 311.86 193.152 311.96C193.292 312.06 193.432 312.09 193.572 312.05C193.712 312.01 193.872 311.94 194.052 311.84C194.252 311.72 194.432 311.6 194.592 311.48C194.772 311.36 194.922 311.25 195.042 311.15C195.182 311.05 195.272 311 195.312 311C195.512 311 195.232 311.91 194.472 313.73C194.072 314.65 193.762 315.37 193.542 315.89C193.322 316.39 193.152 316.64 193.032 316.64C192.912 316.64 192.862 316.48 192.882 316.16C192.922 315.82 192.942 315.41 192.942 314.93C192.922 314.45 192.802 314.06 192.582 313.76C192.362 313.44 192.022 313.29 191.562 313.31C191.342 313.33 191.142 313.42 190.962 313.58C190.802 313.74 190.712 313.97 190.692 314.27C190.692 314.57 190.782 314.94 190.962 315.38C191.162 315.8 191.522 316.28 192.042 316.82C192.542 317.34 193.122 317.96 193.782 318.68C194.462 319.38 195.112 320.11 195.732 320.87C196.772 322.17 197.452 323.49 197.772 324.83C198.092 326.17 198.072 327.38 197.712 328.46C197.352 329.52 196.672 330.39 195.672 331.07C194.692 331.73 193.412 332.03 191.832 331.97C190.752 331.93 189.792 331.64 188.952 331.1C188.132 330.54 187.482 329.84 187.002 329C186.542 328.14 186.282 327.2 186.222 326.18C186.162 325.16 186.372 324.16 186.852 323.18Z" fill="white"/>
<path d="M199.076 330.8V312.23C199.016 311.69 198.706 311.28 198.146 311H203.216C202.616 311.28 202.316 311.69 202.316 312.23V330.8L203.216 332.03H198.146L199.076 330.8Z" fill="white"/>
<path d="M204.525 327.29V312.35C204.505 311.69 204.175 311.24 203.535 311H208.335L215.325 328.31V315.68C215.285 315.34 215.175 315.07 214.995 314.87C214.815 314.65 214.595 314.47 214.335 314.33H217.965C217.685 314.53 217.455 314.74 217.275 314.96C217.095 315.16 216.985 315.4 216.945 315.68V330.62L217.965 331.97H213.585L206.145 313.64V327.29L207.165 328.67H203.535L204.525 327.29Z" fill="white"/>
<path d="M218.274 321.2C218.294 319.88 218.454 318.59 218.754 317.33C219.054 316.07 219.514 314.96 220.134 314C220.754 313.04 221.524 312.28 222.444 311.72C223.384 311.16 224.484 310.93 225.744 311.03C226.644 311.09 227.334 311.22 227.814 311.42C228.294 311.62 228.634 311.79 228.834 311.93L230.664 311.33L226.764 316.19C226.804 315.91 226.844 315.64 226.884 315.38C226.924 315.16 226.954 314.94 226.974 314.72C227.014 314.5 227.044 314.33 227.064 314.21C227.064 313.99 227.014 313.79 226.914 313.61C226.814 313.47 226.664 313.34 226.464 313.22C226.264 313.1 225.964 313.04 225.564 313.04C225.044 313.04 224.574 313.25 224.154 313.67C223.754 314.09 223.404 314.65 223.104 315.35C222.824 316.05 222.594 316.85 222.414 317.75C222.234 318.65 222.104 319.59 222.024 320.57C221.964 321.53 221.954 322.49 221.994 323.45C222.054 324.41 222.164 325.3 222.324 326.12C222.484 326.92 222.694 327.61 222.954 328.19C223.234 328.77 223.574 329.17 223.974 329.39C224.334 329.57 224.644 329.66 224.904 329.66C225.304 329.66 225.634 329.51 225.894 329.21C226.154 328.91 226.374 328.53 226.554 328.07V325.7C226.474 325.64 226.374 325.58 226.254 325.52C226.154 325.48 226.034 325.44 225.894 325.4C225.774 325.36 225.624 325.34 225.444 325.34L230.214 322.97L229.794 323.87V332H229.374L228.144 330.08C228.004 330.28 227.814 330.5 227.574 330.74C227.354 330.96 227.094 331.17 226.794 331.37C226.514 331.55 226.194 331.7 225.834 331.82C225.474 331.94 225.084 332 224.664 332C223.624 332 222.704 331.69 221.904 331.07C221.104 330.45 220.434 329.63 219.894 328.61C219.354 327.59 218.944 326.44 218.664 325.16C218.384 323.86 218.254 322.54 218.274 321.2Z" fill="white"/>
<path d="M239.592 311H254.682V316.19C254.562 315.63 254.442 315.11 254.322 314.63C254.202 314.23 254.072 313.85 253.932 313.49C253.792 313.11 253.642 312.86 253.482 312.74C253.262 312.58 252.932 312.5 252.492 312.5C252.072 312.5 251.622 312.57 251.142 312.71C250.662 312.83 250.242 313 249.882 313.22C249.622 313.4 249.412 313.6 249.252 313.82C249.112 314.02 249.002 314.23 248.922 314.45C248.862 314.65 248.822 314.85 248.802 315.05C248.782 315.23 248.772 315.38 248.772 315.5V330.8L249.672 331.97H244.602L245.532 330.8V315.5C245.532 314.98 245.422 314.53 245.202 314.15C245.002 313.77 244.732 313.46 244.392 313.22C244.052 312.98 243.652 312.8 243.192 312.68C242.752 312.56 242.302 312.5 241.842 312.5C241.342 312.5 241.002 312.58 240.822 312.74C240.662 312.86 240.502 313.11 240.342 313.49C240.202 313.85 240.082 314.23 239.982 314.63C239.842 315.11 239.712 315.63 239.592 316.19V311Z" fill="white"/>
<path d="M254.419 317.54C254.519 317.84 254.689 318.1 254.929 318.32C255.149 318.52 255.439 318.69 255.799 318.83C256.179 318.95 256.679 318.96 257.299 318.86C257.579 318.82 257.889 318.79 258.229 318.77C258.589 318.73 258.969 318.72 259.369 318.74V312.23C259.349 311.97 259.269 311.74 259.129 311.54C259.009 311.32 258.789 311.14 258.469 311H263.539C262.979 311.26 262.669 311.67 262.609 312.23V318.98C263.549 319.14 264.429 319.37 265.249 319.67C266.089 319.97 266.779 320.37 267.319 320.87V312.23C267.219 311.71 266.909 311.3 266.389 311H271.459C270.899 311.34 270.589 311.75 270.529 312.23V327.41L271.459 328.67H266.389L267.319 327.41V322.49C267.059 322.13 266.659 321.79 266.119 321.47C265.599 321.15 264.849 321.01 263.869 321.05C263.649 321.07 263.439 321.09 263.239 321.11C263.039 321.11 262.829 321.13 262.609 321.17V330.83L263.539 332.06H258.469L259.369 330.83V321.83C258.889 321.93 258.429 322.02 257.989 322.1C257.569 322.18 257.169 322.22 256.789 322.22C256.269 322.22 255.839 322.12 255.499 321.92C255.099 321.66 254.809 321.32 254.629 320.9C254.449 320.48 254.339 320.05 254.299 319.61C254.259 319.17 254.259 318.76 254.299 318.38C254.339 318 254.379 317.72 254.419 317.54Z" fill="white"/>
<path d="M277.378 311.81H286.827V316.52C286.667 316 286.468 315.54 286.228 315.14C286.008 314.8 285.727 314.49 285.387 314.21C285.067 313.91 284.668 313.76 284.188 313.76H280.587V319.19H283.738L284.368 318.32V322.04L283.708 321.14H280.618V328.1C280.978 328.06 281.508 328.16 282.208 328.4C282.928 328.62 283.778 329.2 284.758 330.14C286.198 331.54 287.417 332.55 288.417 333.17C289.437 333.79 290.278 334.06 290.938 333.98C291.278 333.94 291.537 333.84 291.717 333.68C291.917 333.52 292.067 333.36 292.167 333.2C292.287 333.02 292.368 332.81 292.408 332.57C292.328 333.33 292.168 334 291.928 334.58C291.708 335.1 291.378 335.57 290.938 335.99C290.498 336.43 289.887 336.66 289.107 336.68C288.327 336.72 287.638 336.53 287.038 336.11C286.438 335.71 285.887 335.22 285.387 334.64C284.887 334.06 284.407 333.45 283.947 332.81C283.487 332.17 283.008 331.63 282.508 331.19C282.008 330.77 281.508 330.44 281.008 330.2C280.528 329.96 280.088 329.79 279.688 329.69C279.308 329.59 278.987 329.53 278.727 329.51C278.487 329.49 278.357 329.48 278.337 329.48H276.447L277.378 328.22V313.79C277.158 313.83 276.937 313.9 276.717 314C276.497 314.1 276.297 314.24 276.117 314.42C275.917 314.62 275.708 314.87 275.488 315.17C275.268 315.45 275.077 315.77 274.917 316.13C274.757 316.49 274.657 316.9 274.617 317.36C274.577 317.82 274.628 318.34 274.768 318.92C274.928 319.48 274.967 319.96 274.887 320.36C274.827 320.74 274.717 321.06 274.557 321.32C274.377 321.6 274.147 321.83 273.867 322.01C273.987 321.79 274.038 321.57 274.018 321.35C274.018 321.15 273.947 320.94 273.807 320.72C273.687 320.48 273.427 320.25 273.027 320.03C272.467 319.71 272.067 319.29 271.827 318.77C271.587 318.23 271.487 317.66 271.527 317.06C271.547 316.44 271.697 315.82 271.977 315.2C272.277 314.58 272.678 314.02 273.178 313.52C273.698 313.02 274.308 312.61 275.008 312.29C275.728 311.97 276.518 311.81 277.378 311.81Z" fill="white"/>
<path d="M297.163 320.21C297.103 320.65 297.123 321.04 297.223 321.38C297.323 321.66 297.502 321.89 297.762 322.07C298.022 322.25 298.443 322.29 299.023 322.19C299.243 322.13 299.462 322.1 299.682 322.1L301.333 312.26C301.333 311.98 301.262 311.74 301.122 311.54C300.982 311.32 300.742 311.14 300.402 311H304.633C304.753 311.6 304.903 312.4 305.083 313.4C305.283 314.4 305.492 315.5 305.712 316.7C305.952 317.9 306.202 319.13 306.462 320.39C306.742 321.65 307.013 322.84 307.273 323.96C307.553 325.06 307.833 326.04 308.113 326.9C308.393 327.74 308.663 328.33 308.923 328.67H304.393L304.842 328.04L304.393 325.94C304.193 325.48 303.953 325.07 303.673 324.71C303.433 324.39 303.122 324.1 302.742 323.84C302.382 323.58 301.952 323.44 301.452 323.42C301.392 323.42 301.322 323.42 301.242 323.42C301.182 323.42 301.122 323.43 301.062 323.45L299.562 332.39L300.133 333.2H297.283C297.383 333.1 297.493 332.94 297.613 332.72C297.753 332.5 297.873 332.28 297.973 332.06L299.322 324.23C298.702 324.63 298.133 324.83 297.613 324.83C297.113 324.83 296.703 324.66 296.383 324.32C296.083 323.96 295.902 323.54 295.842 323.06C295.782 322.58 295.853 322.08 296.053 321.56C296.273 321.02 296.643 320.57 297.163 320.21ZM303.943 323.63L302.352 315.8L301.303 322.1C302.463 322.28 303.343 322.79 303.943 323.63Z" fill="white"/>
<path d="M308.562 311H313.632C313.412 311.14 313.222 311.3 313.062 311.48C312.902 311.66 312.792 311.89 312.732 312.17V325.49C312.732 326.25 312.972 326.93 313.452 327.53C313.932 328.11 314.532 328.49 315.252 328.67C315.372 328.69 315.492 328.71 315.612 328.73C315.732 328.73 315.852 328.73 315.972 328.73C316.112 328.73 316.242 328.73 316.362 328.73C316.482 328.71 316.602 328.69 316.722 328.67C317.442 328.49 318.042 328.11 318.522 327.53C319.002 326.93 319.242 326.25 319.242 325.49V315.08C319.162 314.62 318.872 314.24 318.372 313.94H321.762C321.262 314.18 320.962 314.57 320.862 315.11V326.3C320.862 327.08 320.712 327.82 320.412 328.52C320.112 329.2 319.702 329.8 319.182 330.32C318.682 330.82 318.082 331.22 317.382 331.52C316.702 331.82 315.962 331.97 315.162 331.97C314.382 331.97 313.642 331.82 312.942 331.52C312.262 331.22 311.662 330.82 311.142 330.32C310.642 329.8 310.242 329.2 309.942 328.52C309.642 327.82 309.492 327.08 309.492 326.3V312.17C309.412 311.77 309.102 311.38 308.562 311Z" fill="white"/>
<path d="M321.594 311H336.684V316.19C336.564 315.63 336.444 315.11 336.324 314.63C336.204 314.23 336.074 313.85 335.934 313.49C335.794 313.11 335.644 312.86 335.484 312.74C335.264 312.58 334.934 312.5 334.494 312.5C334.074 312.5 333.624 312.57 333.144 312.71C332.664 312.83 332.244 313 331.884 313.22C331.624 313.4 331.414 313.6 331.254 313.82C331.114 314.02 331.004 314.23 330.924 314.45C330.864 314.65 330.824 314.85 330.804 315.05C330.784 315.23 330.774 315.38 330.774 315.5V330.8L331.674 331.97H326.604L327.534 330.8V315.5C327.534 314.98 327.424 314.53 327.204 314.15C327.004 313.77 326.734 313.46 326.394 313.22C326.054 312.98 325.654 312.8 325.194 312.68C324.754 312.56 324.304 312.5 323.844 312.5C323.344 312.5 323.004 312.58 322.824 312.74C322.664 312.86 322.504 313.11 322.344 313.49C322.204 313.85 322.084 314.23 321.984 314.63C321.844 315.11 321.714 315.63 321.594 316.19V311Z" fill="white"/>
<path d="M336.661 321.5C336.661 320.06 336.851 318.7 337.231 317.42C337.631 316.14 338.171 315.03 338.851 314.09C339.531 313.13 340.331 312.38 341.251 311.84C342.171 311.28 343.151 311 344.191 311C345.231 311 346.211 311.28 347.131 311.84C348.051 312.38 348.851 313.13 349.531 314.09C350.211 315.03 350.741 316.14 351.121 317.42C351.521 318.7 351.721 320.06 351.721 321.5C351.721 322.94 351.521 324.3 351.121 325.58C350.741 326.86 350.211 327.97 349.531 328.91C348.851 329.85 348.051 330.6 347.131 331.16C346.211 331.7 345.231 331.97 344.191 331.97C343.151 331.97 342.171 331.7 341.251 331.16C340.331 330.6 339.531 329.85 338.851 328.91C338.171 327.97 337.631 326.86 337.231 325.58C336.851 324.3 336.661 322.94 336.661 321.5ZM340.651 321.5C340.711 322.72 340.861 323.87 341.101 324.95C341.341 326.01 341.641 326.94 342.001 327.74C342.381 328.54 342.801 329.17 343.261 329.63C343.721 330.09 344.191 330.32 344.671 330.32C345.171 330.32 345.621 330.09 346.021 329.63C346.441 329.17 346.791 328.54 347.071 327.74C347.351 326.94 347.551 326.01 347.671 324.95C347.791 323.87 347.821 322.72 347.761 321.5C347.701 320.28 347.541 319.13 347.281 318.05C347.041 316.97 346.741 316.03 346.381 315.23C346.021 314.43 345.611 313.8 345.151 313.34C344.691 312.88 344.211 312.65 343.711 312.65C343.231 312.65 342.781 312.88 342.361 313.34C341.961 313.8 341.621 314.43 341.341 315.23C341.061 316.03 340.861 316.97 340.741 318.05C340.621 319.13 340.591 320.28 340.651 321.5Z" fill="white"/>
<path d="M353.002 327.29V312.35C353.022 312.03 352.942 311.76 352.762 311.54C352.582 311.32 352.332 311.14 352.012 311H355.642C355.362 311.16 355.132 311.35 354.952 311.57C354.772 311.79 354.662 312.06 354.622 312.38V314.24L358.882 321.14L362.722 314.9L362.302 314.33H367.372C366.852 314.63 366.552 315.04 366.472 315.56V330.74L367.372 331.97H362.302L363.232 330.74V320.27L358.882 327.32L354.622 320.42V327.29L355.642 328.67H352.012L353.002 327.29Z" fill="white"/>
<path d="M368.676 320.21C368.616 320.65 368.636 321.04 368.736 321.38C368.836 321.66 369.016 321.89 369.276 322.07C369.536 322.25 369.956 322.29 370.536 322.19C370.756 322.13 370.976 322.1 371.196 322.1L372.846 312.26C372.846 311.98 372.776 311.74 372.636 311.54C372.496 311.32 372.256 311.14 371.916 311H376.146C376.266 311.6 376.416 312.4 376.596 313.4C376.796 314.4 377.006 315.5 377.226 316.7C377.466 317.9 377.716 319.13 377.976 320.39C378.256 321.65 378.526 322.84 378.786 323.96C379.066 325.06 379.346 326.04 379.626 326.9C379.906 327.74 380.176 328.33 380.436 328.67H375.906L376.356 328.04L375.906 325.94C375.706 325.48 375.466 325.07 375.186 324.71C374.946 324.39 374.636 324.1 374.256 323.84C373.896 323.58 373.466 323.44 372.966 323.42C372.906 323.42 372.836 323.42 372.756 323.42C372.696 323.42 372.636 323.43 372.576 323.45L371.076 332.39L371.646 333.2H368.796C368.896 333.1 369.006 332.94 369.126 332.72C369.266 332.5 369.386 332.28 369.486 332.06L370.836 324.23C370.216 324.63 369.646 324.83 369.126 324.83C368.626 324.83 368.216 324.66 367.896 324.32C367.596 323.96 367.416 323.54 367.356 323.06C367.296 322.58 367.366 322.08 367.566 321.56C367.786 321.02 368.156 320.57 368.676 320.21ZM375.456 323.63L373.866 315.8L372.816 322.1C373.976 322.28 374.856 322.79 375.456 323.63Z" fill="white"/>
<path d="M378.342 311H393.432V316.19C393.312 315.63 393.192 315.11 393.072 314.63C392.952 314.23 392.822 313.85 392.682 313.49C392.542 313.11 392.392 312.86 392.232 312.74C392.012 312.58 391.682 312.5 391.242 312.5C390.822 312.5 390.372 312.57 389.892 312.71C389.412 312.83 388.992 313 388.632 313.22C388.372 313.4 388.162 313.6 388.002 313.82C387.862 314.02 387.752 314.23 387.672 314.45C387.612 314.65 387.572 314.85 387.552 315.05C387.532 315.23 387.522 315.38 387.522 315.5V330.8L388.422 331.97H383.352L384.282 330.8V315.5C384.282 314.98 384.172 314.53 383.952 314.15C383.752 313.77 383.482 313.46 383.142 313.22C382.802 312.98 382.402 312.8 381.942 312.68C381.502 312.56 381.052 312.5 380.592 312.5C380.092 312.5 379.752 312.58 379.572 312.74C379.412 312.86 379.252 313.11 379.092 313.49C378.952 313.85 378.832 314.23 378.732 314.63C378.592 315.11 378.462 315.63 378.342 316.19V311Z" fill="white"/>
<path d="M392.7 320.21C392.64 320.65 392.66 321.04 392.76 321.38C392.86 321.66 393.04 321.89 393.3 322.07C393.56 322.25 393.98 322.29 394.56 322.19C394.78 322.13 395 322.1 395.22 322.1L396.87 312.26C396.87 311.98 396.8 311.74 396.66 311.54C396.52 311.32 396.28 311.14 395.94 311H400.17C400.29 311.6 400.44 312.4 400.62 313.4C400.82 314.4 401.03 315.5 401.25 316.7C401.49 317.9 401.74 319.13 402 320.39C402.28 321.65 402.55 322.84 402.81 323.96C403.09 325.06 403.37 326.04 403.65 326.9C403.93 327.74 404.2 328.33 404.46 328.67H399.93L400.38 328.04L399.93 325.94C399.73 325.48 399.49 325.07 399.21 324.71C398.97 324.39 398.66 324.1 398.28 323.84C397.92 323.58 397.49 323.44 396.99 323.42C396.93 323.42 396.86 323.42 396.78 323.42C396.72 323.42 396.66 323.43 396.6 323.45L395.1 332.39L395.67 333.2H392.82C392.92 333.1 393.03 332.94 393.15 332.72C393.29 332.5 393.41 332.28 393.51 332.06L394.86 324.23C394.24 324.63 393.67 324.83 393.15 324.83C392.65 324.83 392.24 324.66 391.92 324.32C391.62 323.96 391.44 323.54 391.38 323.06C391.32 322.58 391.39 322.08 391.59 321.56C391.81 321.02 392.18 320.57 392.7 320.21ZM399.48 323.63L397.89 315.8L396.84 322.1C398 322.28 398.88 322.79 399.48 323.63Z" fill="white"/>
<path d="M415.184 313.52C415.744 312.52 416.474 311.82 417.374 311.42C418.274 311.02 419.124 310.91 419.924 311.09C420.324 311.17 420.664 311.31 420.944 311.51C421.224 311.69 421.474 311.87 421.694 312.05C421.934 312.21 422.154 312.34 422.354 312.44C422.554 312.54 422.764 312.54 422.984 312.44C423.324 312.28 423.604 312.08 423.824 311.84C424.044 311.58 424.254 311.45 424.454 311.45C424.554 311.45 424.664 311.51 424.784 311.63L422.204 318.05C422.144 318.07 422.084 318.08 422.024 318.08C421.884 318.08 421.804 318 421.784 317.84C421.764 317.74 421.764 317.6 421.784 317.42C421.804 317.22 421.804 316.99 421.784 316.73C421.764 316.45 421.714 316.15 421.634 315.83C421.574 315.49 421.444 315.14 421.244 314.78C421.024 314.4 420.764 314.1 420.464 313.88C420.184 313.66 419.894 313.55 419.594 313.55C418.974 313.55 418.444 313.97 418.004 314.81C417.704 315.41 417.464 316.17 417.284 317.09C417.124 317.99 417.034 318.96 417.014 320C416.994 321.02 417.034 322.05 417.134 323.09C417.254 324.11 417.434 325.03 417.674 325.85C417.914 326.67 418.214 327.34 418.574 327.86C418.934 328.38 419.344 328.64 419.804 328.64C419.924 328.64 420.154 328.55 420.494 328.37C420.834 328.17 421.184 327.9 421.544 327.56C421.904 327.2 422.224 326.78 422.504 326.3C422.784 325.8 422.934 325.24 422.954 324.62C423.074 324.62 423.184 324.67 423.284 324.77C423.364 324.87 423.424 325.02 423.464 325.22C423.504 325.4 423.494 325.69 423.434 326.09C423.374 326.47 423.214 326.99 422.954 327.65C422.694 328.31 422.364 328.96 421.964 329.6C421.584 330.24 421.144 330.8 420.644 331.28C420.164 331.74 419.664 331.97 419.144 331.97C418.264 331.97 417.484 331.64 416.804 330.98C416.144 330.32 415.584 329.46 415.124 328.4C414.664 327.32 414.314 326.11 414.074 324.77C413.834 323.41 413.714 322.05 413.714 320.69C413.714 319.31 413.834 317.99 414.074 316.73C414.314 315.47 414.684 314.4 415.184 313.52Z" fill="white"/>
<path d="M423.965 321.5C423.965 320.06 424.155 318.7 424.535 317.42C424.935 316.14 425.475 315.03 426.155 314.09C426.835 313.13 427.635 312.38 428.555 311.84C429.475 311.28 430.455 311 431.495 311C432.535 311 433.515 311.28 434.435 311.84C435.355 312.38 436.155 313.13 436.835 314.09C437.515 315.03 438.045 316.14 438.425 317.42C438.825 318.7 439.025 320.06 439.025 321.5C439.025 322.94 438.825 324.3 438.425 325.58C438.045 326.86 437.515 327.97 436.835 328.91C436.155 329.85 435.355 330.6 434.435 331.16C433.515 331.7 432.535 331.97 431.495 331.97C430.455 331.97 429.475 331.7 428.555 331.16C427.635 330.6 426.835 329.85 426.155 328.91C425.475 327.97 424.935 326.86 424.535 325.58C424.155 324.3 423.965 322.94 423.965 321.5ZM427.955 321.5C428.015 322.72 428.165 323.87 428.405 324.95C428.645 326.01 428.945 326.94 429.305 327.74C429.685 328.54 430.105 329.17 430.565 329.63C431.025 330.09 431.495 330.32 431.975 330.32C432.475 330.32 432.925 330.09 433.325 329.63C433.745 329.17 434.095 328.54 434.375 327.74C434.655 326.94 434.855 326.01 434.975 324.95C435.095 323.87 435.125 322.72 435.065 321.5C435.005 320.28 434.845 319.13 434.585 318.05C434.345 316.97 434.045 316.03 433.685 315.23C433.325 314.43 432.915 313.8 432.455 313.34C431.995 312.88 431.515 312.65 431.015 312.65C430.535 312.65 430.085 312.88 429.665 313.34C429.265 313.8 428.925 314.43 428.645 315.23C428.365 316.03 428.165 316.97 428.045 318.05C427.925 319.13 427.895 320.28 427.955 321.5Z" fill="white"/>
<path d="M440.006 323.18C440.146 322.9 440.226 322.64 440.246 322.4C440.266 322.16 440.156 321.9 439.916 321.62C440.276 321.58 440.626 321.63 440.966 321.77C441.246 321.87 441.536 322.07 441.836 322.37C442.156 322.67 442.406 323.12 442.586 323.72C442.786 324.32 442.896 324.98 442.916 325.7C442.936 326.4 442.996 327.06 443.096 327.68C443.196 328.28 443.396 328.78 443.696 329.18C443.996 329.56 444.526 329.73 445.286 329.69C446.046 329.65 446.596 329.42 446.936 329C447.296 328.56 447.506 328.05 447.566 327.47C447.646 326.87 447.606 326.26 447.446 325.64C447.286 325 447.066 324.47 446.786 324.05C446.526 323.63 446.136 323.15 445.616 322.61C445.116 322.05 444.576 321.48 443.996 320.9C443.436 320.3 442.886 319.71 442.346 319.13C441.806 318.55 441.366 318.01 441.026 317.51C440.686 317.01 440.446 316.46 440.306 315.86C440.186 315.24 440.186 314.64 440.306 314.06C440.426 313.48 440.676 312.95 441.056 312.47C441.436 311.99 441.966 311.62 442.646 311.36C443.186 311.16 443.676 311.06 444.116 311.06C444.496 311.06 444.816 311.12 445.076 311.24C445.356 311.36 445.596 311.49 445.796 311.63C445.996 311.75 446.166 311.86 446.306 311.96C446.446 312.06 446.586 312.09 446.726 312.05C446.866 312.01 447.026 311.94 447.206 311.84C447.406 311.72 447.586 311.6 447.746 311.48C447.926 311.36 448.076 311.25 448.196 311.15C448.336 311.05 448.426 311 448.466 311C448.666 311 448.386 311.91 447.626 313.73C447.226 314.65 446.916 315.37 446.696 315.89C446.476 316.39 446.306 316.64 446.186 316.64C446.066 316.64 446.016 316.48 446.036 316.16C446.076 315.82 446.096 315.41 446.096 314.93C446.076 314.45 445.956 314.06 445.736 313.76C445.516 313.44 445.176 313.29 444.716 313.31C444.496 313.33 444.296 313.42 444.116 313.58C443.956 313.74 443.866 313.97 443.846 314.27C443.846 314.57 443.936 314.94 444.116 315.38C444.316 315.8 444.676 316.28 445.196 316.82C445.696 317.34 446.276 317.96 446.936 318.68C447.616 319.38 448.266 320.11 448.886 320.87C449.926 322.17 450.606 323.49 450.926 324.83C451.246 326.17 451.226 327.38 450.866 328.46C450.506 329.52 449.826 330.39 448.826 331.07C447.846 331.73 446.566 332.03 444.986 331.97C443.906 331.93 442.946 331.64 442.106 331.1C441.286 330.54 440.636 329.84 440.156 329C439.696 328.14 439.436 327.2 439.376 326.18C439.316 325.16 439.526 324.16 440.006 323.18Z" fill="white"/>
<path d="M452.23 327.29V312.35C452.25 312.03 452.17 311.76 451.99 311.54C451.81 311.32 451.56 311.14 451.24 311H454.87C454.59 311.16 454.36 311.35 454.18 311.57C454 311.79 453.89 312.06 453.85 312.38V314.24L458.11 321.14L461.95 314.9L461.53 314.33H466.6C466.08 314.63 465.78 315.04 465.7 315.56V330.74L466.6 331.97H461.53L462.46 330.74V320.27L458.11 327.32L453.85 320.42V327.29L454.87 328.67H451.24L452.23 327.29Z" fill="white"/>
<path d="M466.915 321.5C466.915 320.06 467.105 318.7 467.485 317.42C467.885 316.14 468.425 315.03 469.105 314.09C469.785 313.13 470.585 312.38 471.505 311.84C472.425 311.28 473.405 311 474.445 311C475.485 311 476.465 311.28 477.385 311.84C478.305 312.38 479.105 313.13 479.785 314.09C480.465 315.03 480.995 316.14 481.375 317.42C481.775 318.7 481.975 320.06 481.975 321.5C481.975 322.94 481.775 324.3 481.375 325.58C480.995 326.86 480.465 327.97 479.785 328.91C479.105 329.85 478.305 330.6 477.385 331.16C476.465 331.7 475.485 331.97 474.445 331.97C473.405 331.97 472.425 331.7 471.505 331.16C470.585 330.6 469.785 329.85 469.105 328.91C468.425 327.97 467.885 326.86 467.485 325.58C467.105 324.3 466.915 322.94 466.915 321.5ZM470.905 321.5C470.965 322.72 471.115 323.87 471.355 324.95C471.595 326.01 471.895 326.94 472.255 327.74C472.635 328.54 473.055 329.17 473.515 329.63C473.975 330.09 474.445 330.32 474.925 330.32C475.425 330.32 475.875 330.09 476.275 329.63C476.695 329.17 477.045 328.54 477.325 327.74C477.605 326.94 477.805 326.01 477.925 324.95C478.045 323.87 478.075 322.72 478.015 321.5C477.955 320.28 477.795 319.13 477.535 318.05C477.295 316.97 476.995 316.03 476.635 315.23C476.275 314.43 475.865 313.8 475.405 313.34C474.945 312.88 474.465 312.65 473.965 312.65C473.485 312.65 473.035 312.88 472.615 313.34C472.215 313.8 471.875 314.43 471.595 315.23C471.315 316.03 471.115 316.97 470.995 318.05C470.875 319.13 470.845 320.28 470.905 321.5Z" fill="white"/>
<path d="M482.956 323.18C483.096 322.9 483.176 322.64 483.196 322.4C483.216 322.16 483.106 321.9 482.866 321.62C483.226 321.58 483.576 321.63 483.916 321.77C484.196 321.87 484.486 322.07 484.786 322.37C485.106 322.67 485.356 323.12 485.536 323.72C485.736 324.32 485.846 324.98 485.866 325.7C485.886 326.4 485.946 327.06 486.046 327.68C486.146 328.28 486.346 328.78 486.646 329.18C486.946 329.56 487.476 329.73 488.236 329.69C488.996 329.65 489.546 329.42 489.886 329C490.246 328.56 490.456 328.05 490.516 327.47C490.596 326.87 490.556 326.26 490.396 325.64C490.236 325 490.016 324.47 489.736 324.05C489.476 323.63 489.086 323.15 488.566 322.61C488.066 322.05 487.526 321.48 486.946 320.9C486.386 320.3 485.836 319.71 485.296 319.13C484.756 318.55 484.316 318.01 483.976 317.51C483.636 317.01 483.396 316.46 483.256 315.86C483.136 315.24 483.136 314.64 483.256 314.06C483.376 313.48 483.626 312.95 484.006 312.47C484.386 311.99 484.916 311.62 485.596 311.36C486.136 311.16 486.626 311.06 487.066 311.06C487.446 311.06 487.766 311.12 488.026 311.24C488.306 311.36 488.546 311.49 488.746 311.63C488.946 311.75 489.116 311.86 489.256 311.96C489.396 312.06 489.536 312.09 489.676 312.05C489.816 312.01 489.976 311.94 490.156 311.84C490.356 311.72 490.536 311.6 490.696 311.48C490.876 311.36 491.026 311.25 491.146 311.15C491.286 311.05 491.376 311 491.416 311C491.616 311 491.336 311.91 490.576 313.73C490.176 314.65 489.866 315.37 489.646 315.89C489.426 316.39 489.256 316.64 489.136 316.64C489.016 316.64 488.966 316.48 488.986 316.16C489.026 315.82 489.046 315.41 489.046 314.93C489.026 314.45 488.906 314.06 488.686 313.76C488.466 313.44 488.126 313.29 487.666 313.31C487.446 313.33 487.246 313.42 487.066 313.58C486.906 313.74 486.816 313.97 486.796 314.27C486.796 314.57 486.886 314.94 487.066 315.38C487.266 315.8 487.626 316.28 488.146 316.82C488.646 317.34 489.226 317.96 489.886 318.68C490.566 319.38 491.216 320.11 491.836 320.87C492.876 322.17 493.556 323.49 493.876 324.83C494.196 326.17 494.176 327.38 493.816 328.46C493.456 329.52 492.776 330.39 491.776 331.07C490.796 331.73 489.516 332.03 487.936 331.97C486.856 331.93 485.896 331.64 485.056 331.1C484.236 330.54 483.586 329.84 483.106 329C482.646 328.14 482.386 327.2 482.326 326.18C482.266 325.16 482.476 324.16 482.956 323.18Z" fill="white"/>
</g>
<defs>
<linearGradient id="paint0_linear_94_43" x1="57.8706" y1="76.6158" x2="57.8706" y2="254.641" gradientUnits="userSpaceOnUse">
<stop stop-color="#878787"/>
<stop offset="0.48" stop-color="white"/>
<stop offset="1" stop-color="#7E7C7C"/>
</linearGradient>
<linearGradient id="paint1_linear_94_43" x1="147.268" y1="76.6158" x2="147.268" y2="243.512" gradientUnits="userSpaceOnUse">
<stop stop-color="#878787"/>
<stop offset="0.48" stop-color="white"/>
<stop offset="1" stop-color="#7E7C7C"/>
</linearGradient>
<linearGradient id="paint2_linear_94_43" x1="220.785" y1="13.7333" x2="220.785" y2="254.669" gradientUnits="userSpaceOnUse">
<stop stop-color="#878787"/>
<stop offset="0.48" stop-color="white"/>
<stop offset="1" stop-color="#7E7C7C"/>
</linearGradient>
<linearGradient id="paint3_linear_94_43" x1="297.35" y1="76.6158" x2="297.35" y2="243.553" gradientUnits="userSpaceOnUse">
<stop stop-color="#878787"/>
<stop offset="0.48" stop-color="white"/>
<stop offset="1" stop-color="#7E7C7C"/>
</linearGradient>
<linearGradient id="paint4_linear_94_43" x1="407.091" y1="76.5884" x2="407.091" y2="254.587" gradientUnits="userSpaceOnUse">
<stop stop-color="#878787"/>
<stop offset="0.48" stop-color="white"/>
<stop offset="1" stop-color="#7E7C7C"/>
</linearGradient>
<linearGradient id="paint5_linear_94_43" x1="297.35" y1="145.529" x2="297.35" y2="171.077" gradientUnits="userSpaceOnUse">
<stop stop-color="#878787"/>
<stop offset="0.48" stop-color="white"/>
<stop offset="1" stop-color="#7E7C7C"/>
</linearGradient>
<linearGradient id="paint6_linear_94_43" x1="297.405" y1="142.637" x2="297.405" y2="145.789" gradientUnits="userSpaceOnUse">
<stop stop-color="#878787"/>
<stop offset="0.48" stop-color="white"/>
<stop offset="1" stop-color="#7E7C7C"/>
</linearGradient>
<linearGradient id="paint7_linear_94_43" x1="297.405" y1="170.816" x2="297.405" y2="173.969" gradientUnits="userSpaceOnUse">
<stop stop-color="#878787"/>
<stop offset="0.48" stop-color="white"/>
<stop offset="1" stop-color="#7E7C7C"/>
</linearGradient>
<linearGradient id="paint8_linear_94_43" x1="312.976" y1="157.151" x2="309.823" y2="157.151" gradientUnits="userSpaceOnUse">
<stop stop-color="#878787"/>
<stop offset="0.48" stop-color="white"/>
<stop offset="1" stop-color="#7E7C7C"/>
</linearGradient>
<linearGradient id="paint9_linear_94_43" x1="284.973" y1="156.727" x2="281.821" y2="156.727" gradientUnits="userSpaceOnUse">
<stop stop-color="#878787"/>
<stop offset="0.48" stop-color="white"/>
<stop offset="1" stop-color="#7E7C7C"/>
</linearGradient>
<linearGradient id="paint10_linear_94_43" x1="287.962" y1="149.813" x2="285.573" y2="147.756" gradientUnits="userSpaceOnUse">
<stop stop-color="#878787"/>
<stop offset="0.48" stop-color="white"/>
<stop offset="1" stop-color="#7E7C7C"/>
</linearGradient>
<linearGradient id="paint11_linear_94_43" x1="309.484" y1="168.351" x2="307.095" y2="166.294" gradientUnits="userSpaceOnUse">
<stop stop-color="#878787"/>
<stop offset="0.48" stop-color="white"/>
<stop offset="1" stop-color="#7E7C7C"/>
</linearGradient>
<linearGradient id="paint12_linear_94_43" x1="309.142" y1="150.18" x2="307.085" y2="147.792" gradientUnits="userSpaceOnUse">
<stop stop-color="#878787"/>
<stop offset="0.48" stop-color="white"/>
<stop offset="1" stop-color="#7E7C7C"/>
</linearGradient>
<linearGradient id="paint13_linear_94_43" x1="287.576" y1="168.757" x2="285.519" y2="166.368" gradientUnits="userSpaceOnUse">
<stop stop-color="#878787"/>
<stop offset="0.48" stop-color="white"/>
<stop offset="1" stop-color="#7E7C7C"/>
</linearGradient>
<linearGradient id="paint14_linear_94_43" x1="297.35" y1="156.727" x2="297.35" y2="160.386" gradientUnits="userSpaceOnUse">
<stop stop-color="#878787"/>
<stop offset="0.48" stop-color="white"/>
<stop offset="1" stop-color="#7E7C7C"/>
</linearGradient>
<linearGradient id="paint15_linear_94_43" x1="502.528" y1="-0.00408936" x2="502.528" y2="255.697" gradientUnits="userSpaceOnUse">
<stop stop-color="#878787"/>
<stop offset="0.48" stop-color="white"/>
<stop offset="1" stop-color="#7E7C7C"/>
</linearGradient>
<linearGradient id="paint16_linear_94_43" x1="127.149" y1="271.5" x2="127.149" y2="276.749" gradientUnits="userSpaceOnUse">
<stop stop-color="#878787"/>
<stop offset="0.48" stop-color="white"/>
<stop offset="1" stop-color="#7E7C7C"/>
</linearGradient>
<linearGradient id="paint17_linear_94_43" x1="464.851" y1="271.5" x2="464.851" y2="276.749" gradientUnits="userSpaceOnUse">
<stop stop-color="#878787"/>
<stop offset="0.48" stop-color="white"/>
<stop offset="1" stop-color="#7E7C7C"/>
</linearGradient>
<linearGradient id="paint18_linear_94_43" x1="296.363" y1="253.449" x2="296.363" y2="300.035" gradientUnits="userSpaceOnUse">
<stop stop-color="#878787"/>
<stop offset="0.48" stop-color="white"/>
<stop offset="1" stop-color="#7E7C7C"/>
</linearGradient>
<clipPath id="clip0_94_43">
<rect width="592" height="337" fill="white"/>
</clipPath>
</defs>
</svg>
