<svg width="1977" height="1126" viewBox="0 0 1977 1126" fill="none" xmlns="http://www.w3.org/2000/svg">
<g clip-path="url(#clip0_94_43)">
<path d="M1.51074 288.369V290.338C1.51074 291.3 1.69384 292.17 2.1058 292.994C2.38044 293.864 2.83817 294.597 3.52477 295.193C4.1656 295.879 4.89798 296.337 5.7219 296.612C6.54582 297.024 7.41551 297.253 8.37676 297.208L10.2077 296.979C11.352 296.658 12.359 296.063 13.2287 295.193L14.2815 293.819C14.9224 292.765 15.197 291.575 15.197 290.338V288.369C15.197 287.407 15.0139 286.537 14.6019 285.713C14.3273 284.843 13.8696 284.11 13.183 283.515C12.5421 282.828 11.8098 282.37 10.9858 282.095C10.1619 281.683 9.29222 281.454 8.33098 281.5L6.50005 281.729C5.35571 282.049 4.34869 282.645 3.479 283.515L2.42621 284.889C1.78538 285.942 1.51074 287.133 1.51074 288.369Z" fill="white"/>
<path d="M152.517 451.124C161.351 451.124 161.351 437.385 152.517 437.385C143.683 437.385 143.683 451.124 152.517 451.124Z" fill="white"/>
<path d="M956.848 770.267H954.513" stroke="white" stroke-miterlimit="10"/>
<path d="M19.0415 813.772C14.8304 813.772 12.4959 809.009 14.9677 805.574C17.3022 802.323 19.4077 798.888 21.376 795.225C25.0836 788.356 28.1962 780.479 30.668 771.549L182.041 259.656C182.682 257.458 184.696 255.992 186.938 255.992H192.248C194.537 255.992 196.551 257.504 197.192 259.702L357.856 813.772C361.61 824.671 366.233 834.333 371.726 842.897C373.923 846.332 371.543 850.819 367.469 850.819H304.347C300.228 850.819 297.893 846.286 300.136 842.851C303.523 837.631 306.224 831.494 308.192 824.488C308.467 823.572 308.467 822.564 308.192 821.603L271.253 690.904C270.795 689.21 269.468 687.882 267.774 687.378L188.907 663.931C186.206 663.107 183.368 664.664 182.544 667.366L147.207 784.738C146.978 785.516 146.887 786.386 147.07 787.211C148.351 794.355 150.823 800.537 154.531 805.803C156.865 809.146 154.302 813.726 150.228 813.726H19.0415V813.772ZM198.199 632.058L250.335 648.315C254.225 649.506 257.887 645.934 256.789 641.996L228.867 543.629C227.448 538.683 220.49 538.637 219.026 543.583L194.811 625.693C194.033 628.395 195.544 631.188 198.199 632.058Z" fill="url(#paint0_linear_94_43)"/>
<path d="M421.436 264.922L410.038 274.997C408.94 275.959 408.299 277.378 408.299 278.844V637.737C408.299 655.597 414.021 670.846 425.51 683.532C436.953 696.217 450.731 702.582 466.889 702.582C483.047 702.582 496.779 696.262 508.268 683.532C519.711 670.846 525.479 655.597 525.479 637.737C525.479 626.059 525.616 614.748 525.937 603.757C526.257 592.812 526.074 581.455 525.479 569.778V363.93C525.479 352.94 523.465 344.055 519.437 337.186C517.743 334.301 515.821 331.691 513.623 329.264C510.648 325.967 512.937 320.7 517.377 320.7H634.832C639.272 320.7 641.423 325.967 638.448 329.264C630.941 337.644 626.73 349.23 625.86 363.93V665.443C625.86 686.05 622.29 705.238 615.149 723.052C608.008 740.912 598.396 756.483 586.312 769.9C574.227 783.272 560.129 793.943 544.017 801.819C527.905 809.696 510.557 813.634 491.973 813.634C473.389 813.634 456.041 809.696 439.928 801.819C423.816 793.943 409.718 783.318 397.634 769.9C385.549 756.528 375.937 740.912 368.796 723.052C361.656 705.238 358.085 686.004 358.085 665.443V278.798C358.085 277.378 357.49 276.005 356.438 275.043L345.452 264.876C342.019 261.717 344.262 255.992 348.931 255.992H418.003C422.717 255.992 424.915 261.854 421.39 264.968L421.436 264.922Z" fill="url(#paint1_linear_94_43)"/>
<path d="M531.521 212.35L593.819 49.1834C594.597 47.2143 596.474 45.8862 598.625 45.8862H876.927C879.079 45.8862 880.955 47.2143 881.734 49.2292L943.116 212.396C944.672 216.563 940.415 220.776 936.387 218.899C936.387 218.899 936.295 218.899 936.25 218.853C932.542 216.792 927.553 212.35 921.373 205.481C915.148 198.612 906.817 187.667 896.29 172.554C881.413 150.619 865.164 131.751 847.495 115.952C831.703 101.847 814.035 91.2688 794.489 84.308C791.102 83.1173 787.532 85.4986 787.532 89.1164L787.074 806.399C787.074 807.269 787.303 808.093 787.669 808.826L806.253 843.355C808.084 846.79 805.612 850.911 801.722 850.911H672.778C668.933 850.911 666.461 846.835 668.201 843.447L686.098 808.826C686.464 808.093 686.647 807.315 686.647 806.49L687.105 89.208C687.105 85.636 683.535 83.2089 680.147 84.3996C660.648 91.3604 643.117 101.939 627.6 116.044C610.251 131.843 593.819 150.71 578.347 172.646C568.414 187.758 560.221 198.749 553.721 205.572C547.221 212.442 542.095 216.884 538.387 218.944C538.387 218.944 538.296 218.944 538.25 218.99C534.222 220.868 529.965 216.7 531.521 212.487V212.35Z" fill="url(#paint2_linear_94_43)"/>
<path d="M833.122 534.882C833.122 496.46 837.287 460.282 845.664 426.303C854.041 392.323 865.484 362.694 880.04 337.278C894.596 311.908 911.486 291.987 930.711 277.607C949.936 263.182 970.671 255.992 993.009 255.992C1015.35 255.992 1036.08 263.182 1055.31 277.607C1074.49 292.033 1091.38 311.908 1105.98 337.278C1120.53 362.648 1132.02 392.323 1140.35 426.303C1148.73 460.282 1152.9 496.46 1152.9 534.882C1152.9 573.304 1148.73 609.482 1140.35 643.461C1131.98 677.441 1120.53 706.933 1105.98 731.982C1091.42 757.032 1074.53 776.907 1055.31 791.653C1036.08 806.399 1015.35 813.772 993.009 813.772C970.671 813.772 949.936 806.399 930.711 791.653C911.486 776.907 894.596 757.032 880.04 731.982C865.484 706.933 853.995 677.441 845.664 643.461C837.287 609.482 833.122 573.304 833.122 534.882ZM992.963 778.785C1001.61 778.785 1009.99 772.465 1018.05 759.734C1026.1 747.049 1033.06 729.555 1038.97 707.253C1044.87 684.951 1049.49 659.077 1052.93 629.54C1056.31 600.048 1058.05 568.495 1058.05 534.882C1058.05 501.269 1056.31 469.716 1052.93 440.224C1049.49 410.733 1044.87 384.813 1038.97 362.511C1033.06 340.209 1026.1 322.715 1018.05 310.03C1009.99 297.345 1001.61 290.979 992.963 290.979C983.671 290.979 975.157 297.345 967.421 310.03C959.686 322.715 953.003 340.209 947.418 362.511C941.834 384.813 937.348 410.733 933.915 440.224C930.482 469.716 928.789 501.315 928.789 534.882C928.789 568.45 930.482 600.094 933.915 629.54C937.302 659.031 941.834 684.951 947.418 707.253C953.003 729.555 959.64 747.049 967.421 759.734C975.157 772.419 983.671 778.785 992.963 778.785Z" fill="url(#paint3_linear_94_43)"/>
<path d="M1171.8 255.947H1282.39C1284.59 255.947 1286.55 257.366 1287.24 259.427L1361.12 479.837C1362.58 484.187 1368.53 484.599 1370.59 480.478L1480.77 258.74C1481.64 257 1483.42 255.901 1485.35 255.901H1547.19C1551.03 255.901 1553.5 259.976 1551.76 263.365L1533.87 297.986C1533.5 298.719 1533.32 299.543 1533.32 300.322V806.216C1533.32 807.04 1533.5 807.864 1533.87 808.551L1551.76 843.172C1553.55 846.607 1551.03 850.636 1547.19 850.636H1469.24C1465.39 850.636 1462.92 846.561 1464.66 843.172L1482.56 808.551C1482.92 807.818 1483.1 806.994 1483.1 806.216V507.222C1483.1 501.818 1475.78 500.078 1473.4 504.932L1385.42 682.158C1383.41 686.234 1377.41 685.867 1375.99 681.517L1296.07 444.941C1294.2 439.446 1286.1 440.774 1286.1 446.59V769.168C1286.1 770.038 1286.32 770.862 1286.69 771.595L1305.27 806.124C1307.11 809.559 1304.63 813.68 1300.74 813.68H1171.8C1167.95 813.68 1165.48 809.604 1167.22 806.216L1185.07 771.595C1185.44 770.862 1185.62 770.038 1185.62 769.259V300.413C1185.62 299.589 1185.44 298.765 1185.07 298.078L1167.22 263.457C1165.44 260.022 1167.95 255.992 1171.8 255.992V255.947Z" fill="url(#paint4_linear_94_43)"/>
<path d="M993.009 571.609C1016.57 571.609 1035.67 552.501 1035.67 528.929C1035.67 505.357 1016.57 486.248 993.009 486.248C969.448 486.248 950.348 505.357 950.348 528.929C950.348 552.501 969.448 571.609 993.009 571.609Z" fill="url(#paint5_linear_94_43)"/>
<path d="M993.009 550.269C1004.79 550.269 1014.34 540.715 1014.34 528.929C1014.34 517.143 1004.79 507.588 993.009 507.588C981.228 507.588 971.678 517.143 971.678 528.929C971.678 540.715 981.228 550.269 993.009 550.269Z" fill="white"/>
<path d="M998.456 476.585H987.928V487.118H998.456V476.585Z" fill="url(#paint6_linear_94_43)"/>
<path d="M998.456 570.739H987.928V581.272H998.456V570.739Z" fill="url(#paint7_linear_94_43)"/>
<path d="M1045.19 530.348V519.815H1034.66V530.348H1045.19Z" fill="url(#paint8_linear_94_43)"/>
<path d="M951.675 528.929V518.396H941.147V528.929H951.675Z" fill="url(#paint9_linear_94_43)"/>
<path d="M958.219 504.553L965.09 496.573L957.113 489.699L950.242 497.679L958.219 504.553Z" fill="url(#paint10_linear_94_43)"/>
<path d="M1030.09 566.493L1036.96 558.513L1028.99 551.639L1022.12 559.619L1030.09 566.493Z" fill="url(#paint11_linear_94_43)"/>
<path d="M1028.4 505.226L1036.38 498.352L1029.51 490.372L1021.53 497.246L1028.4 505.226Z" fill="url(#paint12_linear_94_43)"/>
<path d="M956.381 567.294L964.357 560.42L957.487 552.44L949.51 559.314L956.381 567.294Z" fill="url(#paint13_linear_94_43)"/>
<path d="M993.192 523.662C987.058 523.662 979.872 527.189 979.872 529.799C979.872 532.409 987.058 535.89 993.192 535.89C999.325 535.89 1006.15 532.363 1006.15 529.799C1006.15 527.234 999.325 523.662 993.192 523.662Z" fill="url(#paint14_linear_94_43)"/>
<path d="M993.375 533.691C995.397 533.691 997.037 532.051 997.037 530.028C997.037 528.004 995.397 526.364 993.375 526.364C991.352 526.364 989.713 528.004 989.713 530.028C989.713 532.051 991.352 533.691 993.375 533.691Z" fill="white"/>
<path d="M1947.93 854.3C1942.94 843.126 1932.37 832.685 1924.09 817.344L1813.5 44.375C1803.29 37.9638 1778.66 22.9889 1768.32 16.6235C1764.29 14.1505 1760.45 10.029 1755.09 5.72431C1746.62 -1.14489 1734.45 0.0915642 1729.5 0.0457695C1726.76 0.183154 1723.05 0.503717 1718.7 1.23643C1718.7 1.23643 1711.83 4.0757 1707.44 8.19723C1697.78 17.2188 1631.23 97.7716 1616.67 107.48C1604.68 115.494 1604.13 94.7034 1587.83 92.8716C1581.98 92.2305 1573.83 92.78 1567.97 94.8408C1547.14 102.076 1516.38 137.384 1509.15 145.123C1487.32 168.524 1361.39 286.995 1427.35 256.038C1471.39 235.385 1519.86 215.189 1542.66 204.382C1572.27 190.369 1577.67 255.992 1605.78 248.803C1631.09 243.719 1656.4 178.645 1665.01 188.766C1670.73 195.543 1671.28 193.254 1670.73 195.543C1640.98 397.773 1607.2 572.8 1577.44 775.029C1574.97 784.005 1571.86 791.928 1568.11 798.797C1564.4 805.666 1560.05 811.848 1555.11 817.298H1708.49C1700.44 810.429 1695.49 801.178 1693.62 789.5L1730.78 665.992L1817.25 691.729L1855.38 826.548C1852.27 838.226 1847.32 847.477 1840.5 854.346H1947.98L1947.93 854.3ZM1618.5 560.573L1621.98 544.087L1749.64 584.066L1744.7 599.132L1618.5 560.573ZM1740.03 634.073L1770.7 530.119L1806.04 654.635L1740.03 634.073ZM1801 613.099L1794.96 596.018L1893.51 626.288L1895.57 640.576L1801.05 613.054L1801 613.099Z" fill="url(#paint15_linear_94_43)"/>
<path d="M849.234 907.147H0V924.687H849.234V907.147Z" fill="url(#paint16_linear_94_43)"/>
<path d="M1977 907.147H1127.77V924.687H1977V907.147Z" fill="url(#paint17_linear_94_43)"/>
<path d="M1072.47 899.683C1071.56 941.264 1038.19 974.694 997.037 974.694C955.886 974.694 921.51 940.348 921.51 897.942C921.51 878.296 928.834 860.391 940.827 846.835C919.359 862.406 905.307 887.867 905.307 916.718C905.307 964.07 943.116 1002.49 989.713 1002.49C1036.31 1002.49 1074.12 964.07 1074.12 916.718C1074.12 910.856 1073.52 905.178 1072.43 899.637L1072.47 899.683Z" fill="url(#paint18_linear_94_43)"/>
<path d="M327.273 1039.13H377.667V1056.47C377.266 1054.6 376.865 1052.86 376.465 1051.26C376.064 1049.92 375.63 1048.65 375.162 1047.45C374.695 1046.18 374.194 1045.34 373.659 1044.94C372.925 1044.41 371.823 1044.14 370.353 1044.14C368.951 1044.14 367.448 1044.37 365.845 1044.84C364.242 1045.24 362.839 1045.81 361.637 1046.55C360.769 1047.15 360.068 1047.81 359.533 1048.55C359.066 1049.22 358.698 1049.92 358.431 1050.65C358.231 1051.32 358.097 1051.99 358.03 1052.66C357.964 1053.26 357.93 1053.76 357.93 1054.16V1105.28L360.936 1109.19H344.004L347.11 1105.28V1054.16C347.11 1052.43 346.743 1050.92 346.008 1049.65C345.34 1048.38 344.439 1047.35 343.303 1046.55C342.168 1045.74 340.832 1045.14 339.296 1044.74C337.826 1044.34 336.324 1044.14 334.787 1044.14C333.118 1044.14 331.982 1044.41 331.381 1044.94C330.847 1045.34 330.312 1046.18 329.778 1047.45C329.311 1048.65 328.91 1049.92 328.576 1051.26C328.108 1052.86 327.674 1054.6 327.273 1056.47V1039.13Z" fill="white"/>
<path d="M396.225 1040.93H407.045C411.921 1040.93 415.995 1041.8 419.267 1043.54C422.54 1045.21 425.078 1047.38 426.882 1050.05C428.752 1052.66 429.854 1055.57 430.188 1058.77C430.588 1061.91 430.321 1064.99 429.386 1068C428.518 1070.94 426.982 1073.61 424.778 1076.02C422.574 1078.42 419.802 1080.12 416.462 1081.13C418.132 1082.46 419.802 1084.3 421.472 1086.64C423.141 1088.91 424.811 1091.38 426.481 1094.06C428.151 1096.73 429.787 1099.44 431.39 1102.18C433.06 1104.92 434.663 1107.39 436.199 1109.59C437.802 1111.8 439.338 1113.6 440.807 1115.01C442.277 1116.41 443.713 1117.11 445.115 1117.11C446.384 1117.11 447.486 1116.54 448.422 1115.41C449.49 1114.34 450.392 1113.7 451.127 1113.5C451.527 1113.37 451.895 1113.3 452.229 1113.3C452.095 1113.57 452.028 1113.9 452.028 1114.31C451.961 1114.64 451.928 1115.11 451.928 1115.71C451.995 1116.31 452.128 1117.05 452.329 1117.91C452.529 1118.78 452.563 1119.75 452.429 1120.82C452.295 1121.96 451.895 1123.03 451.227 1124.03C450.626 1125.03 449.724 1125.87 448.522 1126.53C447.32 1127.2 445.783 1127.54 443.913 1127.54C440.774 1127.6 438.036 1126.74 435.698 1124.93C433.427 1123.19 431.39 1120.92 429.587 1118.11C427.783 1115.31 426.114 1112.2 424.577 1108.79C423.041 1105.32 421.472 1101.88 419.869 1098.47C418.332 1095.06 416.663 1091.92 414.859 1089.05C413.056 1086.11 410.952 1083.77 408.548 1082.03C408.28 1081.96 408.013 1081.93 407.746 1081.93C407.546 1081.93 407.312 1081.9 407.045 1081.83V1098.17L410.05 1102.48H393.119L396.225 1098.17V1047.85C395.49 1047.98 394.755 1048.22 394.021 1048.55C393.286 1048.88 392.618 1049.39 392.017 1050.05C391.349 1050.79 390.648 1051.66 389.913 1052.66C389.178 1053.6 388.544 1054.7 388.01 1055.97C387.475 1057.24 387.141 1058.67 387.008 1060.28C386.874 1061.88 387.041 1063.69 387.509 1065.69C388.043 1067.63 388.177 1069.3 387.909 1070.7C387.709 1072.04 387.342 1073.14 386.807 1074.01C386.206 1075.01 385.438 1075.81 384.503 1076.42C384.904 1075.68 385.071 1074.95 385.004 1074.21C385.004 1073.48 384.77 1072.71 384.303 1071.91C383.902 1071.1 383.034 1070.33 381.698 1069.6C379.828 1068.46 378.492 1066.96 377.69 1065.09C376.889 1063.22 376.555 1061.25 376.689 1059.18C376.755 1057.04 377.256 1054.9 378.191 1052.76C379.193 1050.55 380.529 1048.58 382.199 1046.85C383.935 1045.11 385.972 1043.71 388.31 1042.64C390.715 1041.5 393.353 1040.93 396.225 1040.93ZM407.045 1047.85V1076.32C410.318 1075.98 413.023 1075.11 415.16 1073.71C417.364 1072.24 419 1070.54 420.069 1068.6C421.138 1066.59 421.672 1064.49 421.672 1062.28C421.672 1060.01 421.138 1057.87 420.069 1055.87C419 1053.86 417.364 1052.13 415.16 1050.65C413.023 1049.18 410.318 1048.25 407.045 1047.85Z" fill="white"/>
<path d="M436.566 1069.9C436.366 1071.37 436.432 1072.67 436.766 1073.81C437.1 1074.75 437.701 1075.51 438.57 1076.12C439.438 1076.72 440.841 1076.85 442.778 1076.52C443.512 1076.32 444.247 1076.22 444.982 1076.22L450.492 1043.34C450.492 1042.4 450.258 1041.6 449.791 1040.93C449.323 1040.2 448.521 1039.6 447.386 1039.13H461.512C461.913 1041.13 462.414 1043.81 463.015 1047.15C463.683 1050.49 464.384 1054.16 465.119 1058.17C465.92 1062.18 466.755 1066.29 467.624 1070.5C468.559 1074.71 469.46 1078.69 470.329 1082.43C471.264 1086.11 472.199 1089.38 473.134 1092.25C474.069 1095.06 474.971 1097.03 475.839 1098.17H460.711L462.214 1096.06L460.711 1089.05C460.043 1087.51 459.241 1086.14 458.306 1084.94C457.505 1083.87 456.47 1082.9 455.201 1082.03C453.998 1081.16 452.562 1080.69 450.893 1080.63C450.692 1080.63 450.458 1080.63 450.191 1080.63C449.991 1080.63 449.791 1080.66 449.59 1080.73L444.581 1110.6L446.484 1113.3H436.967C437.301 1112.97 437.668 1112.43 438.069 1111.7C438.536 1110.96 438.937 1110.23 439.271 1109.49L443.779 1083.33C441.709 1084.67 439.805 1085.34 438.069 1085.34C436.399 1085.34 435.03 1084.77 433.961 1083.63C432.959 1082.43 432.358 1081.03 432.158 1079.42C431.957 1077.82 432.191 1076.15 432.859 1074.41C433.594 1072.61 434.829 1071.1 436.566 1069.9ZM459.208 1081.33L453.898 1055.17L450.392 1076.22C454.265 1076.82 457.204 1078.52 459.208 1081.33Z" fill="white"/>
<path d="M469.744 1039.23H483.87C483.002 1039.56 482.334 1040 481.866 1040.53C481.466 1041 481.365 1041.6 481.566 1042.34L498.597 1098.37L508.616 1050.76C508.616 1049.95 508.115 1049.22 507.113 1048.55H517.032C516.297 1049.08 515.629 1049.72 515.028 1050.45C514.427 1051.19 513.926 1052.16 513.525 1053.36L501.803 1108.89L502.004 1109.29H491.184L471.147 1043.64C470.545 1041.83 469.443 1040.33 467.84 1039.13L469.744 1039.23Z" fill="white"/>
<path d="M535.056 1041.83H566.615V1057.57C566.081 1055.83 565.413 1054.3 564.611 1052.96C563.877 1051.82 562.942 1050.79 561.806 1049.85C560.737 1048.85 559.402 1048.35 557.799 1048.35H545.776V1066.49H556.296L558.4 1063.59V1076.02L556.196 1073.01H545.877V1096.26C547.079 1096.13 548.849 1096.46 551.186 1097.27C553.591 1098 556.429 1099.94 559.702 1103.08C564.511 1107.76 568.585 1111.13 571.925 1113.2C575.331 1115.27 578.136 1116.18 580.34 1115.91C581.476 1115.78 582.344 1115.44 582.945 1114.91C583.613 1114.37 584.114 1113.84 584.448 1113.3C584.849 1112.7 585.116 1112 585.25 1111.2C584.982 1113.74 584.448 1115.98 583.647 1117.91C582.912 1119.65 581.81 1121.22 580.34 1122.63C578.871 1124.1 576.834 1124.86 574.229 1124.93C571.624 1125.06 569.32 1124.43 567.316 1123.03C565.313 1121.69 563.476 1120.05 561.806 1118.11C560.136 1116.18 558.533 1114.14 556.997 1112C555.461 1109.86 553.858 1108.06 552.188 1106.59C550.518 1105.18 548.849 1104.08 547.179 1103.28C545.576 1102.48 544.107 1101.91 542.771 1101.58C541.502 1101.24 540.433 1101.04 539.565 1100.97C538.763 1100.91 538.329 1100.87 538.262 1100.87H531.951L535.056 1096.66V1048.45C534.322 1048.58 533.587 1048.82 532.852 1049.15C532.118 1049.49 531.45 1049.95 530.849 1050.55C530.181 1051.22 529.479 1052.06 528.745 1053.06C528.01 1054 527.376 1055.07 526.841 1056.27C526.307 1057.47 525.973 1058.84 525.839 1060.38C525.706 1061.91 525.873 1063.65 526.34 1065.59C526.875 1067.46 527.008 1069.07 526.741 1070.4C526.541 1071.67 526.173 1072.74 525.639 1073.61C525.038 1074.54 524.27 1075.31 523.335 1075.91C523.735 1075.18 523.902 1074.44 523.836 1073.71C523.836 1073.04 523.602 1072.34 523.134 1071.6C522.734 1070.8 521.865 1070.03 520.53 1069.3C518.659 1068.23 517.324 1066.83 516.522 1065.09C515.721 1063.28 515.387 1061.38 515.52 1059.38C515.587 1057.3 516.088 1055.23 517.023 1053.16C518.025 1051.09 519.361 1049.22 521.03 1047.55C522.767 1045.88 524.804 1044.51 527.142 1043.44C529.546 1042.37 532.184 1041.83 535.056 1041.83Z" fill="white"/>
<path d="M585.736 1040.93H596.556C601.432 1040.93 605.506 1041.8 608.779 1043.54C612.052 1045.21 614.59 1047.38 616.393 1050.05C618.263 1052.66 619.365 1055.57 619.699 1058.77C620.1 1061.91 619.833 1064.99 618.898 1068C618.03 1070.94 616.493 1073.61 614.289 1076.02C612.085 1078.42 609.313 1080.12 605.974 1081.13C607.644 1082.46 609.313 1084.3 610.983 1086.64C612.653 1088.91 614.323 1091.38 615.993 1094.06C617.662 1096.73 619.299 1099.44 620.902 1102.18C622.571 1104.92 624.174 1107.39 625.711 1109.59C627.314 1111.8 628.85 1113.6 630.319 1115.01C631.788 1116.41 633.224 1117.11 634.627 1117.11C635.896 1117.11 636.998 1116.54 637.933 1115.41C639.002 1114.34 639.904 1113.7 640.638 1113.5C641.039 1113.37 641.406 1113.3 641.74 1113.3C641.607 1113.57 641.54 1113.9 641.54 1114.31C641.473 1114.64 641.44 1115.11 641.44 1115.71C641.507 1116.31 641.64 1117.05 641.84 1117.91C642.041 1118.78 642.074 1119.75 641.941 1120.82C641.807 1121.96 641.406 1123.03 640.738 1124.03C640.137 1125.03 639.236 1125.87 638.033 1126.53C636.831 1127.2 635.295 1127.54 633.425 1127.54C630.286 1127.6 627.547 1126.74 625.21 1124.93C622.939 1123.19 620.902 1120.92 619.098 1118.11C617.295 1115.31 615.625 1112.2 614.089 1108.79C612.553 1105.32 610.983 1101.88 609.38 1098.47C607.844 1095.06 606.174 1091.92 604.371 1089.05C602.568 1086.11 600.464 1083.77 598.059 1082.03C597.792 1081.96 597.525 1081.93 597.258 1081.93C597.057 1081.93 596.824 1081.9 596.556 1081.83V1098.17L599.562 1102.48H582.631L585.736 1098.17V1047.85C585.002 1047.98 584.267 1048.22 583.532 1048.55C582.798 1048.88 582.13 1049.39 581.529 1050.05C580.861 1050.79 580.159 1051.66 579.425 1052.66C578.69 1053.6 578.055 1054.7 577.521 1055.97C576.987 1057.24 576.653 1058.67 576.519 1060.28C576.386 1061.88 576.553 1063.69 577.02 1065.69C577.555 1067.63 577.688 1069.3 577.421 1070.7C577.221 1072.04 576.853 1073.14 576.319 1074.01C575.718 1075.01 574.95 1075.81 574.015 1076.42C574.415 1075.68 574.582 1074.95 574.516 1074.21C574.516 1073.48 574.282 1072.71 573.814 1071.91C573.414 1071.1 572.545 1070.33 571.209 1069.6C569.339 1068.46 568.004 1066.96 567.202 1065.09C566.401 1063.22 566.067 1061.25 566.2 1059.18C566.267 1057.04 566.768 1054.9 567.703 1052.76C568.705 1050.55 570.041 1048.58 571.71 1046.85C573.447 1045.11 575.484 1043.71 577.822 1042.64C580.226 1041.5 582.864 1040.93 585.736 1040.93ZM596.556 1047.85V1076.32C599.829 1075.98 602.534 1075.11 604.672 1073.71C606.876 1072.24 608.512 1070.54 609.581 1068.6C610.649 1066.59 611.184 1064.49 611.184 1062.28C611.184 1060.01 610.649 1057.87 609.581 1055.87C608.512 1053.86 606.876 1052.13 604.672 1050.65C602.534 1049.18 599.829 1048.25 596.556 1047.85Z" fill="white"/>
<path d="M623.997 1079.82C624.465 1078.89 624.732 1078.02 624.799 1077.22C624.865 1076.42 624.498 1075.55 623.697 1074.61C624.899 1074.48 626.068 1074.65 627.203 1075.11C628.138 1075.45 629.107 1076.12 630.109 1077.12C631.177 1078.12 632.012 1079.62 632.613 1081.63C633.281 1083.63 633.648 1085.84 633.715 1088.24C633.782 1090.58 633.982 1092.79 634.316 1094.86C634.65 1096.86 635.318 1098.54 636.32 1099.87C637.322 1101.14 639.092 1101.71 641.63 1101.58C644.168 1101.44 646.005 1100.67 647.14 1099.27C648.342 1097.8 649.044 1096.1 649.244 1094.16C649.511 1092.15 649.378 1090.12 648.843 1088.04C648.309 1085.91 647.574 1084.13 646.639 1082.73C645.771 1081.33 644.468 1079.72 642.732 1077.92C641.062 1076.05 639.259 1074.14 637.322 1072.21C635.452 1070.2 633.615 1068.23 631.812 1066.29C630.008 1064.35 628.539 1062.55 627.404 1060.88C626.268 1059.21 625.467 1057.37 624.999 1055.37C624.598 1053.29 624.598 1051.29 624.999 1049.35C625.4 1047.41 626.235 1045.64 627.504 1044.04C628.773 1042.44 630.543 1041.2 632.814 1040.33C634.617 1039.66 636.253 1039.33 637.723 1039.33C638.992 1039.33 640.06 1039.53 640.929 1039.93C641.864 1040.33 642.665 1040.76 643.333 1041.23C644.001 1041.63 644.569 1042 645.036 1042.34C645.504 1042.67 645.971 1042.77 646.439 1042.64C646.906 1042.5 647.441 1042.27 648.042 1041.93C648.71 1041.53 649.311 1041.13 649.845 1040.73C650.446 1040.33 650.947 1039.96 651.348 1039.63C651.815 1039.29 652.116 1039.13 652.25 1039.13C652.918 1039.13 651.982 1042.17 649.444 1048.25C648.109 1051.32 647.073 1053.73 646.339 1055.47C645.604 1057.14 645.036 1057.97 644.635 1057.97C644.235 1057.97 644.068 1057.44 644.135 1056.37C644.268 1055.23 644.335 1053.86 644.335 1052.26C644.268 1050.65 643.867 1049.35 643.133 1048.35C642.398 1047.28 641.263 1046.78 639.726 1046.85C638.992 1046.91 638.324 1047.21 637.723 1047.75C637.188 1048.28 636.888 1049.05 636.821 1050.05C636.821 1051.06 637.122 1052.29 637.723 1053.76C638.391 1055.17 639.593 1056.77 641.329 1058.57C642.999 1060.31 644.936 1062.38 647.14 1064.79C649.411 1067.13 651.582 1069.57 653.652 1072.11C657.125 1076.45 659.396 1080.86 660.465 1085.34C661.533 1089.81 661.467 1093.86 660.264 1097.47C659.062 1101.01 656.791 1103.91 653.452 1106.19C650.179 1108.39 645.905 1109.39 640.628 1109.19C637.021 1109.06 633.815 1108.09 631.01 1106.29C628.272 1104.42 626.101 1102.08 624.498 1099.27C622.962 1096.4 622.094 1093.26 621.893 1089.85C621.693 1086.44 622.394 1083.1 623.997 1079.82Z" fill="white"/>
<path d="M664.819 1105.28V1043.24C664.619 1041.43 663.583 1040.06 661.713 1039.13H678.645C676.641 1040.06 675.639 1041.43 675.639 1043.24V1105.28L678.645 1109.39H661.713L664.819 1105.28Z" fill="white"/>
<path d="M683.017 1093.56V1043.64C682.95 1041.43 681.848 1039.93 679.711 1039.13H695.74L719.084 1096.96V1054.76C718.95 1053.63 718.583 1052.73 717.982 1052.06C717.381 1051.32 716.646 1050.72 715.778 1050.25H727.9C726.965 1050.92 726.197 1051.62 725.596 1052.36C724.995 1053.03 724.627 1053.83 724.494 1054.76V1104.68L727.9 1109.19H713.273L688.427 1047.95V1093.56L691.833 1098.17H679.711L683.017 1093.56Z" fill="white"/>
<path d="M728.93 1073.21C728.997 1068.8 729.531 1064.49 730.533 1060.28C731.535 1056.07 733.071 1052.36 735.142 1049.15C737.212 1045.94 739.784 1043.4 742.856 1041.53C745.995 1039.66 749.669 1038.89 753.876 1039.23C756.882 1039.43 759.186 1039.86 760.789 1040.53C762.392 1041.2 763.528 1041.77 764.195 1042.24L770.307 1040.23L757.283 1056.47C757.416 1055.53 757.55 1054.63 757.683 1053.76C757.817 1053.03 757.917 1052.29 757.984 1051.56C758.118 1050.82 758.218 1050.25 758.285 1049.85C758.285 1049.12 758.118 1048.45 757.784 1047.85C757.45 1047.38 756.949 1046.95 756.281 1046.55C755.613 1046.14 754.611 1045.94 753.275 1045.94C751.539 1045.94 749.969 1046.65 748.567 1048.05C747.231 1049.45 746.062 1051.32 745.06 1053.66C744.125 1056 743.357 1058.67 742.756 1061.68C742.155 1064.69 741.72 1067.83 741.453 1071.1C741.253 1074.31 741.22 1077.52 741.353 1080.73C741.554 1083.93 741.921 1086.91 742.455 1089.65C742.99 1092.32 743.691 1094.63 744.559 1096.56C745.494 1098.5 746.63 1099.84 747.965 1100.57C749.168 1101.17 750.203 1101.48 751.071 1101.48C752.407 1101.48 753.509 1100.97 754.377 1099.97C755.246 1098.97 755.98 1097.7 756.581 1096.16V1088.24C756.314 1088.04 755.98 1087.84 755.58 1087.64C755.246 1087.51 754.845 1087.38 754.377 1087.24C753.977 1087.11 753.476 1087.04 752.875 1087.04L768.804 1079.12L767.401 1082.13V1109.29H765.999L761.891 1102.88C761.424 1103.55 760.789 1104.28 759.988 1105.08C759.253 1105.82 758.385 1106.52 757.383 1107.19C756.448 1107.79 755.379 1108.29 754.177 1108.69C752.975 1109.09 751.672 1109.29 750.27 1109.29C746.797 1109.29 743.724 1108.26 741.053 1106.19C738.381 1104.11 736.143 1101.38 734.34 1097.97C732.537 1094.56 731.168 1090.72 730.233 1086.44C729.297 1082.1 728.863 1077.69 728.93 1073.21Z" fill="white"/>
<path d="M800.123 1039.13H850.517V1056.47C850.116 1054.6 849.715 1052.86 849.314 1051.26C848.914 1049.92 848.479 1048.65 848.012 1047.45C847.544 1046.18 847.043 1045.34 846.509 1044.94C845.774 1044.41 844.672 1044.14 843.203 1044.14C841.8 1044.14 840.298 1044.37 838.695 1044.84C837.092 1045.24 835.689 1045.81 834.487 1046.55C833.619 1047.15 832.917 1047.81 832.383 1048.55C831.915 1049.22 831.548 1049.92 831.281 1050.65C831.081 1051.32 830.947 1051.99 830.88 1052.66C830.813 1053.26 830.78 1053.76 830.78 1054.16V1105.28L833.786 1109.19H816.854L819.96 1105.28V1054.16C819.96 1052.43 819.593 1050.92 818.858 1049.65C818.19 1048.38 817.288 1047.35 816.153 1046.55C815.017 1045.74 813.682 1045.14 812.145 1044.74C810.676 1044.34 809.173 1044.14 807.637 1044.14C805.967 1044.14 804.832 1044.41 804.231 1044.94C803.696 1045.34 803.162 1046.18 802.628 1047.45C802.16 1048.65 801.759 1049.92 801.425 1051.26C800.958 1052.86 800.524 1054.6 800.123 1056.47V1039.13Z" fill="white"/>
<path d="M849.638 1060.98C849.972 1061.98 850.54 1062.85 851.342 1063.59C852.076 1064.25 853.045 1064.82 854.247 1065.29C855.516 1065.69 857.186 1065.72 859.256 1065.39C860.191 1065.26 861.226 1065.16 862.362 1065.09C863.564 1064.96 864.833 1064.92 866.169 1064.99V1043.24C866.102 1042.37 865.835 1041.6 865.368 1040.93C864.967 1040.2 864.232 1039.6 863.163 1039.13H880.095C878.225 1040 877.189 1041.37 876.989 1043.24V1065.79C880.128 1066.33 883.067 1067.09 885.805 1068.1C888.611 1069.1 890.915 1070.44 892.718 1072.11V1043.24C892.384 1041.5 891.349 1040.13 889.612 1039.13H906.544C904.674 1040.26 903.638 1041.63 903.438 1043.24V1093.96L906.544 1098.17H889.612L892.718 1093.96V1077.52C891.85 1076.32 890.514 1075.18 888.711 1074.11C886.974 1073.04 884.47 1072.57 881.197 1072.71C880.462 1072.77 879.761 1072.84 879.093 1072.91C878.425 1072.91 877.724 1072.97 876.989 1073.11V1105.38L880.095 1109.49H863.163L866.169 1105.38V1075.31C864.566 1075.65 863.03 1075.95 861.56 1076.22C860.158 1076.48 858.822 1076.62 857.553 1076.62C855.817 1076.62 854.38 1076.28 853.245 1075.61C851.909 1074.75 850.941 1073.61 850.34 1072.21C849.739 1070.8 849.371 1069.37 849.238 1067.9C849.104 1066.43 849.104 1065.06 849.238 1063.79C849.371 1062.52 849.505 1061.58 849.638 1060.98Z" fill="white"/>
<path d="M926.309 1041.83H957.868V1057.57C957.334 1055.83 956.666 1054.3 955.864 1052.96C955.13 1051.82 954.195 1050.79 953.059 1049.85C951.99 1048.85 950.655 1048.35 949.052 1048.35H937.029V1066.49H947.549L949.653 1063.59V1076.02L947.449 1073.01H937.13V1096.26C938.332 1096.13 940.102 1096.46 942.439 1097.27C944.844 1098 947.682 1099.94 950.955 1103.08C955.764 1107.76 959.838 1111.13 963.178 1113.2C966.584 1115.27 969.389 1116.18 971.593 1115.91C972.729 1115.78 973.597 1115.44 974.198 1114.91C974.866 1114.37 975.367 1113.84 975.701 1113.3C976.102 1112.7 976.369 1112 976.503 1111.2C976.235 1113.74 975.701 1115.98 974.9 1117.91C974.165 1119.65 973.063 1121.22 971.593 1122.63C970.124 1124.1 968.087 1124.86 965.482 1124.93C962.877 1125.06 960.573 1124.43 958.569 1123.03C956.566 1121.69 954.729 1120.05 953.059 1118.11C951.389 1116.18 949.786 1114.14 948.25 1112C946.714 1109.86 945.111 1108.06 943.441 1106.59C941.771 1105.18 940.102 1104.08 938.432 1103.28C936.829 1102.48 935.36 1101.91 934.024 1101.58C932.755 1101.24 931.686 1101.04 930.818 1100.97C930.016 1100.91 929.582 1100.87 929.515 1100.87H923.204L926.309 1096.66V1048.45C925.575 1048.58 924.84 1048.82 924.105 1049.15C923.371 1049.49 922.703 1049.95 922.102 1050.55C921.434 1051.22 920.732 1052.06 919.998 1053.06C919.263 1054 918.629 1055.07 918.094 1056.27C917.56 1057.47 917.226 1058.84 917.092 1060.38C916.959 1061.91 917.126 1063.65 917.593 1065.59C918.128 1067.46 918.261 1069.07 917.994 1070.4C917.794 1071.67 917.426 1072.74 916.892 1073.61C916.291 1074.54 915.523 1075.31 914.588 1075.91C914.988 1075.18 915.155 1074.44 915.089 1073.71C915.089 1073.04 914.855 1072.34 914.387 1071.6C913.987 1070.8 913.118 1070.03 911.783 1069.3C909.912 1068.23 908.577 1066.83 907.775 1065.09C906.974 1063.28 906.64 1061.38 906.773 1059.38C906.84 1057.3 907.341 1055.23 908.276 1053.16C909.278 1051.09 910.614 1049.22 912.283 1047.55C914.02 1045.88 916.057 1044.51 918.395 1043.44C920.799 1042.37 923.437 1041.83 926.309 1041.83Z" fill="white"/>
<path d="M992.382 1069.9C992.182 1071.37 992.248 1072.67 992.582 1073.81C992.916 1074.75 993.517 1075.51 994.386 1076.12C995.254 1076.72 996.657 1076.85 998.594 1076.52C999.328 1076.32 1000.06 1076.22 1000.8 1076.22L1006.31 1043.34C1006.31 1042.4 1006.07 1041.6 1005.61 1040.93C1005.14 1040.2 1004.34 1039.6 1003.2 1039.13H1017.33C1017.73 1041.13 1018.23 1043.81 1018.83 1047.15C1019.5 1050.49 1020.2 1054.16 1020.93 1058.17C1021.74 1062.18 1022.57 1066.29 1023.44 1070.5C1024.37 1074.71 1025.28 1078.69 1026.14 1082.43C1027.08 1086.11 1028.01 1089.38 1028.95 1092.25C1029.88 1095.06 1030.79 1097.03 1031.65 1098.17H1016.53L1018.03 1096.06L1016.53 1089.05C1015.86 1087.51 1015.06 1086.14 1014.12 1084.94C1013.32 1083.87 1012.29 1082.9 1011.02 1082.03C1009.81 1081.16 1008.38 1080.69 1006.71 1080.63C1006.51 1080.63 1006.27 1080.63 1006.01 1080.63C1005.81 1080.63 1005.61 1080.66 1005.41 1080.73L1000.4 1110.6L1002.3 1113.3H992.783C993.117 1112.97 993.484 1112.43 993.885 1111.7C994.352 1110.96 994.753 1110.23 995.087 1109.49L999.595 1083.33C997.525 1084.67 995.621 1085.34 993.885 1085.34C992.215 1085.34 990.846 1084.77 989.777 1083.63C988.775 1082.43 988.174 1081.03 987.974 1079.42C987.773 1077.82 988.007 1076.15 988.675 1074.41C989.41 1072.61 990.645 1071.1 992.382 1069.9ZM1015.02 1081.33L1009.71 1055.17L1006.21 1076.22C1010.08 1076.82 1013.02 1078.52 1015.02 1081.33Z" fill="white"/>
<path d="M1030.45 1039.13H1047.38C1046.65 1039.6 1046.01 1040.13 1045.48 1040.73C1044.94 1041.33 1044.58 1042.1 1044.38 1043.04V1087.54C1044.38 1090.08 1045.18 1092.35 1046.78 1094.36C1048.38 1096.3 1050.39 1097.57 1052.79 1098.17C1053.19 1098.23 1053.59 1098.3 1053.99 1098.37C1054.39 1098.37 1054.79 1098.37 1055.2 1098.37C1055.66 1098.37 1056.1 1098.37 1056.5 1098.37C1056.9 1098.3 1057.3 1098.23 1057.7 1098.17C1060.1 1097.57 1062.11 1096.3 1063.71 1094.36C1065.31 1092.35 1066.12 1090.08 1066.12 1087.54V1052.76C1065.85 1051.22 1064.88 1049.95 1063.21 1048.95H1074.53C1072.86 1049.75 1071.86 1051.06 1071.53 1052.86V1090.25C1071.53 1092.85 1071.02 1095.33 1070.02 1097.67C1069.02 1099.94 1067.65 1101.94 1065.92 1103.68C1064.25 1105.35 1062.24 1106.69 1059.9 1107.69C1057.63 1108.69 1055.16 1109.19 1052.49 1109.19C1049.89 1109.19 1047.41 1108.69 1045.08 1107.69C1042.81 1106.69 1040.8 1105.35 1039.07 1103.68C1037.4 1101.94 1036.06 1099.94 1035.06 1097.67C1034.06 1095.33 1033.56 1092.85 1033.56 1090.25V1043.04C1033.29 1041.7 1032.25 1040.4 1030.45 1039.13Z" fill="white"/>
<path d="M1073.97 1039.13H1124.36V1056.47C1123.96 1054.6 1123.56 1052.86 1123.16 1051.26C1122.76 1049.92 1122.33 1048.65 1121.86 1047.45C1121.39 1046.18 1120.89 1045.34 1120.36 1044.94C1119.62 1044.41 1118.52 1044.14 1117.05 1044.14C1115.65 1044.14 1114.15 1044.37 1112.54 1044.84C1110.94 1045.24 1109.54 1045.81 1108.33 1046.55C1107.47 1047.15 1106.76 1047.81 1106.23 1048.55C1105.76 1049.22 1105.4 1049.92 1105.13 1050.65C1104.93 1051.32 1104.79 1051.99 1104.73 1052.66C1104.66 1053.26 1104.63 1053.76 1104.63 1054.16V1105.28L1107.63 1109.19H1090.7L1093.81 1105.28V1054.16C1093.81 1052.43 1093.44 1050.92 1092.71 1049.65C1092.04 1048.38 1091.14 1047.35 1090 1046.55C1088.87 1045.74 1087.53 1045.14 1085.99 1044.74C1084.52 1044.34 1083.02 1044.14 1081.48 1044.14C1079.82 1044.14 1078.68 1044.41 1078.08 1044.94C1077.54 1045.34 1077.01 1046.18 1076.48 1047.45C1076.01 1048.65 1075.61 1049.92 1075.27 1051.26C1074.81 1052.86 1074.37 1054.6 1073.97 1056.47V1039.13Z" fill="white"/>
<path d="M1124.29 1074.21C1124.29 1069.4 1124.92 1064.86 1126.19 1060.58C1127.53 1056.3 1129.33 1052.59 1131.6 1049.45C1133.87 1046.24 1136.54 1043.74 1139.62 1041.93C1142.69 1040.06 1145.96 1039.13 1149.43 1039.13C1152.91 1039.13 1156.18 1040.06 1159.25 1041.93C1162.32 1043.74 1165 1046.24 1167.27 1049.45C1169.54 1052.59 1171.31 1056.3 1172.58 1060.58C1173.91 1064.86 1174.58 1069.4 1174.58 1074.21C1174.58 1079.02 1173.91 1083.57 1172.58 1087.84C1171.31 1092.12 1169.54 1095.83 1167.27 1098.97C1165 1102.11 1162.32 1104.62 1159.25 1106.49C1156.18 1108.29 1152.91 1109.19 1149.43 1109.19C1145.96 1109.19 1142.69 1108.29 1139.62 1106.49C1136.54 1104.62 1133.87 1102.11 1131.6 1098.97C1129.33 1095.83 1127.53 1092.12 1126.19 1087.84C1124.92 1083.57 1124.29 1079.02 1124.29 1074.21ZM1137.61 1074.21C1137.81 1078.29 1138.31 1082.13 1139.12 1085.74C1139.92 1089.28 1140.92 1092.39 1142.12 1095.06C1143.39 1097.73 1144.79 1099.84 1146.33 1101.38C1147.86 1102.91 1149.43 1103.68 1151.04 1103.68C1152.71 1103.68 1154.21 1102.91 1155.55 1101.38C1156.95 1099.84 1158.12 1097.73 1159.05 1095.06C1159.99 1092.39 1160.66 1089.28 1161.06 1085.74C1161.46 1082.13 1161.56 1078.29 1161.36 1074.21C1161.16 1070.13 1160.62 1066.29 1159.75 1062.68C1158.95 1059.07 1157.95 1055.93 1156.75 1053.26C1155.55 1050.59 1154.18 1048.48 1152.64 1046.95C1151.1 1045.41 1149.5 1044.64 1147.83 1044.64C1146.23 1044.64 1144.73 1045.41 1143.32 1046.95C1141.99 1048.48 1140.85 1050.59 1139.92 1053.26C1138.98 1055.93 1138.31 1059.07 1137.91 1062.68C1137.51 1066.29 1137.41 1070.13 1137.61 1074.21Z" fill="white"/>
<path d="M1178.86 1093.56V1043.64C1178.93 1042.57 1178.66 1041.67 1178.06 1040.93C1177.46 1040.2 1176.62 1039.6 1175.55 1039.13H1187.67C1186.74 1039.66 1185.97 1040.3 1185.37 1041.03C1184.77 1041.77 1184.4 1042.67 1184.27 1043.74V1049.95L1198.49 1073.01L1211.32 1052.16L1209.92 1050.25H1226.85C1225.11 1051.26 1224.11 1052.63 1223.84 1054.36V1105.08L1226.85 1109.19H1209.92L1213.02 1105.08V1070.1L1198.49 1093.66L1184.27 1070.6V1093.56L1187.67 1098.17H1175.55L1178.86 1093.56Z" fill="white"/>
<path d="M1231.2 1069.9C1231 1071.37 1231.07 1072.67 1231.4 1073.81C1231.74 1074.75 1232.34 1075.51 1233.21 1076.12C1234.08 1076.72 1235.48 1076.85 1237.42 1076.52C1238.15 1076.32 1238.88 1076.22 1239.62 1076.22L1245.13 1043.34C1245.13 1042.4 1244.9 1041.6 1244.43 1040.93C1243.96 1040.2 1243.16 1039.6 1242.02 1039.13H1256.15C1256.55 1041.13 1257.05 1043.81 1257.65 1047.15C1258.32 1050.49 1259.02 1054.16 1259.76 1058.17C1260.56 1062.18 1261.39 1066.29 1262.26 1070.5C1263.2 1074.71 1264.1 1078.69 1264.97 1082.43C1265.9 1086.11 1266.84 1089.38 1267.77 1092.25C1268.71 1095.06 1269.61 1097.03 1270.48 1098.17H1255.35L1256.85 1096.06L1255.35 1089.05C1254.68 1087.51 1253.88 1086.14 1252.94 1084.94C1252.14 1083.87 1251.11 1082.9 1249.84 1082.03C1248.64 1081.16 1247.2 1080.69 1245.53 1080.63C1245.33 1080.63 1245.1 1080.63 1244.83 1080.63C1244.63 1080.63 1244.43 1080.66 1244.23 1080.73L1239.22 1110.6L1241.12 1113.3H1231.6C1231.94 1112.97 1232.31 1112.43 1232.71 1111.7C1233.17 1110.96 1233.57 1110.23 1233.91 1109.49L1238.42 1083.33C1236.35 1084.67 1234.44 1085.34 1232.71 1085.34C1231.04 1085.34 1229.67 1084.77 1228.6 1083.63C1227.6 1082.43 1227 1081.03 1226.8 1079.42C1226.6 1077.82 1226.83 1076.15 1227.5 1074.41C1228.23 1072.61 1229.47 1071.1 1231.2 1069.9ZM1253.85 1081.33L1248.54 1055.17L1245.03 1076.22C1248.9 1076.82 1251.84 1078.52 1253.85 1081.33Z" fill="white"/>
<path d="M1263.48 1039.13H1313.88V1056.47C1313.48 1054.6 1313.07 1052.86 1312.67 1051.26C1312.27 1049.92 1311.84 1048.65 1311.37 1047.45C1310.9 1046.18 1310.4 1045.34 1309.87 1044.94C1309.13 1044.41 1308.03 1044.14 1306.56 1044.14C1305.16 1044.14 1303.66 1044.37 1302.05 1044.84C1300.45 1045.24 1299.05 1045.81 1297.85 1046.55C1296.98 1047.15 1296.28 1047.81 1295.74 1048.55C1295.27 1049.22 1294.91 1049.92 1294.64 1050.65C1294.44 1051.32 1294.31 1051.99 1294.24 1052.66C1294.17 1053.26 1294.14 1053.76 1294.14 1054.16V1105.28L1297.14 1109.19H1280.21L1283.32 1105.28V1054.16C1283.32 1052.43 1282.95 1050.92 1282.22 1049.65C1281.55 1048.38 1280.65 1047.35 1279.51 1046.55C1278.38 1045.74 1277.04 1045.14 1275.5 1044.74C1274.04 1044.34 1272.53 1044.14 1271 1044.14C1269.33 1044.14 1268.19 1044.41 1267.59 1044.94C1267.06 1045.34 1266.52 1046.18 1265.99 1047.45C1265.52 1048.65 1265.12 1049.92 1264.78 1051.26C1264.32 1052.86 1263.88 1054.6 1263.48 1056.47V1039.13Z" fill="white"/>
<path d="M1311.43 1069.9C1311.23 1071.37 1311.3 1072.67 1311.63 1073.81C1311.97 1074.75 1312.57 1075.51 1313.43 1076.12C1314.3 1076.72 1315.71 1076.85 1317.64 1076.52C1318.38 1076.32 1319.11 1076.22 1319.85 1076.22L1325.36 1043.34C1325.36 1042.4 1325.12 1041.6 1324.66 1040.93C1324.19 1040.2 1323.39 1039.6 1322.25 1039.13H1336.38C1336.78 1041.13 1337.28 1043.81 1337.88 1047.15C1338.55 1050.49 1339.25 1054.16 1339.98 1058.17C1340.79 1062.18 1341.62 1066.29 1342.49 1070.5C1343.42 1074.71 1344.33 1078.69 1345.19 1082.43C1346.13 1086.11 1347.06 1089.38 1348 1092.25C1348.93 1095.06 1349.84 1097.03 1350.7 1098.17H1335.58L1337.08 1096.06L1335.58 1089.05C1334.91 1087.51 1334.11 1086.14 1333.17 1084.94C1332.37 1083.87 1331.33 1082.9 1330.07 1082.03C1328.86 1081.16 1327.43 1080.69 1325.76 1080.63C1325.56 1080.63 1325.32 1080.63 1325.06 1080.63C1324.86 1080.63 1324.66 1080.66 1324.45 1080.73L1319.45 1110.6L1321.35 1113.3H1311.83C1312.17 1112.97 1312.53 1112.43 1312.93 1111.7C1313.4 1110.96 1313.8 1110.23 1314.14 1109.49L1318.64 1083.33C1316.57 1084.67 1314.67 1085.34 1312.93 1085.34C1311.26 1085.34 1309.89 1084.77 1308.83 1083.63C1307.82 1082.43 1307.22 1081.03 1307.02 1079.42C1306.82 1077.82 1307.06 1076.15 1307.72 1074.41C1308.46 1072.61 1309.69 1071.1 1311.43 1069.9ZM1334.07 1081.33L1328.76 1055.17L1325.26 1076.22C1329.13 1076.82 1332.07 1078.52 1334.07 1081.33Z" fill="white"/>
<path d="M1386.52 1047.55C1388.39 1044.21 1390.83 1041.87 1393.83 1040.53C1396.84 1039.19 1399.68 1038.83 1402.35 1039.43C1403.68 1039.7 1404.82 1040.16 1405.75 1040.83C1406.69 1041.43 1407.52 1042.03 1408.26 1042.64C1409.06 1043.17 1409.8 1043.6 1410.46 1043.94C1411.13 1044.27 1411.83 1044.27 1412.57 1043.94C1413.7 1043.4 1414.64 1042.74 1415.37 1041.93C1416.11 1041.07 1416.81 1040.63 1417.48 1040.63C1417.81 1040.63 1418.18 1040.83 1418.58 1041.23L1409.96 1062.68C1409.76 1062.75 1409.56 1062.78 1409.36 1062.78C1408.89 1062.78 1408.63 1062.52 1408.56 1061.98C1408.49 1061.65 1408.49 1061.18 1408.56 1060.58C1408.63 1059.91 1408.63 1059.14 1408.56 1058.27C1408.49 1057.34 1408.33 1056.34 1408.06 1055.27C1407.86 1054.13 1407.42 1052.96 1406.76 1051.76C1406.02 1050.49 1405.15 1049.49 1404.15 1048.75C1403.22 1048.02 1402.25 1047.65 1401.25 1047.65C1399.18 1047.65 1397.41 1049.05 1395.94 1051.86C1394.93 1053.86 1394.13 1056.4 1393.53 1059.48C1393 1062.48 1392.7 1065.72 1392.63 1069.2C1392.56 1072.61 1392.7 1076.05 1393.03 1079.52C1393.43 1082.93 1394.03 1086.01 1394.83 1088.75C1395.64 1091.49 1396.64 1093.72 1397.84 1095.46C1399.04 1097.2 1400.41 1098.07 1401.95 1098.07C1402.35 1098.07 1403.12 1097.77 1404.25 1097.17C1405.39 1096.5 1406.56 1095.59 1407.76 1094.46C1408.96 1093.26 1410.03 1091.85 1410.96 1090.25C1411.9 1088.58 1412.4 1086.71 1412.47 1084.64C1412.87 1084.64 1413.24 1084.8 1413.57 1085.14C1413.84 1085.47 1414.04 1085.97 1414.17 1086.64C1414.3 1087.24 1414.27 1088.21 1414.07 1089.55C1413.87 1090.82 1413.34 1092.55 1412.47 1094.76C1411.6 1096.96 1410.5 1099.14 1409.16 1101.27C1407.89 1103.41 1406.42 1105.28 1404.75 1106.89C1403.15 1108.43 1401.48 1109.19 1399.74 1109.19C1396.81 1109.19 1394.2 1108.09 1391.93 1105.89C1389.73 1103.68 1387.86 1100.81 1386.32 1097.27C1384.78 1093.66 1383.61 1089.61 1382.81 1085.14C1382.01 1080.59 1381.61 1076.05 1381.61 1071.5C1381.61 1066.89 1382.01 1062.48 1382.81 1058.27C1383.61 1054.06 1384.85 1050.49 1386.52 1047.55Z" fill="white"/>
<path d="M1415.84 1074.21C1415.84 1069.4 1416.48 1064.86 1417.75 1060.58C1419.08 1056.3 1420.89 1052.59 1423.16 1049.45C1425.43 1046.24 1428.1 1043.74 1431.17 1041.93C1434.24 1040.06 1437.52 1039.13 1440.99 1039.13C1444.46 1039.13 1447.74 1040.06 1450.81 1041.93C1453.88 1043.74 1456.55 1046.24 1458.82 1049.45C1461.09 1052.59 1462.86 1056.3 1464.13 1060.58C1465.47 1064.86 1466.14 1069.4 1466.14 1074.21C1466.14 1079.02 1465.47 1083.57 1464.13 1087.84C1462.86 1092.12 1461.09 1095.83 1458.82 1098.97C1456.55 1102.11 1453.88 1104.62 1450.81 1106.49C1447.74 1108.29 1444.46 1109.19 1440.99 1109.19C1437.52 1109.19 1434.24 1108.29 1431.17 1106.49C1428.1 1104.62 1425.43 1102.11 1423.16 1098.97C1420.89 1095.83 1419.08 1092.12 1417.75 1087.84C1416.48 1083.57 1415.84 1079.02 1415.84 1074.21ZM1429.17 1074.21C1429.37 1078.29 1429.87 1082.13 1430.67 1085.74C1431.47 1089.28 1432.47 1092.39 1433.68 1095.06C1434.95 1097.73 1436.35 1099.84 1437.88 1101.38C1439.42 1102.91 1440.99 1103.68 1442.59 1103.68C1444.26 1103.68 1445.77 1102.91 1447.1 1101.38C1448.5 1099.84 1449.67 1097.73 1450.61 1095.06C1451.54 1092.39 1452.21 1089.28 1452.61 1085.74C1453.01 1082.13 1453.11 1078.29 1452.91 1074.21C1452.71 1070.13 1452.18 1066.29 1451.31 1062.68C1450.51 1059.07 1449.51 1055.93 1448.3 1053.26C1447.1 1050.59 1445.73 1048.48 1444.2 1046.95C1442.66 1045.41 1441.06 1044.64 1439.39 1044.64C1437.78 1044.64 1436.28 1045.41 1434.88 1046.95C1433.54 1048.48 1432.41 1050.59 1431.47 1053.26C1430.54 1055.93 1429.87 1059.07 1429.47 1062.68C1429.07 1066.29 1428.97 1070.13 1429.17 1074.21Z" fill="white"/>
<path d="M1469.41 1079.82C1469.88 1078.89 1470.15 1078.02 1470.21 1077.22C1470.28 1076.42 1469.91 1075.55 1469.11 1074.61C1470.31 1074.48 1471.48 1074.65 1472.62 1075.11C1473.55 1075.45 1474.52 1076.12 1475.52 1077.12C1476.59 1078.12 1477.43 1079.62 1478.03 1081.63C1478.7 1083.63 1479.06 1085.84 1479.13 1088.24C1479.2 1090.58 1479.4 1092.79 1479.73 1094.86C1480.07 1096.86 1480.73 1098.54 1481.74 1099.87C1482.74 1101.14 1484.51 1101.71 1487.05 1101.58C1489.58 1101.44 1491.42 1100.67 1492.56 1099.27C1493.76 1097.8 1494.46 1096.1 1494.66 1094.16C1494.93 1092.15 1494.79 1090.12 1494.26 1088.04C1493.72 1085.91 1492.99 1084.13 1492.05 1082.73C1491.19 1081.33 1489.88 1079.72 1488.15 1077.92C1486.48 1076.05 1484.67 1074.14 1482.74 1072.21C1480.87 1070.2 1479.03 1068.23 1477.23 1066.29C1475.42 1064.35 1473.95 1062.55 1472.82 1060.88C1471.68 1059.21 1470.88 1057.37 1470.41 1055.37C1470.01 1053.29 1470.01 1051.29 1470.41 1049.35C1470.82 1047.41 1471.65 1045.64 1472.92 1044.04C1474.19 1042.44 1475.96 1041.2 1478.23 1040.33C1480.03 1039.66 1481.67 1039.33 1483.14 1039.33C1484.41 1039.33 1485.48 1039.53 1486.34 1039.93C1487.28 1040.33 1488.08 1040.76 1488.75 1041.23C1489.42 1041.63 1489.98 1042 1490.45 1042.34C1490.92 1042.67 1491.39 1042.77 1491.85 1042.64C1492.32 1042.5 1492.86 1042.27 1493.46 1041.93C1494.13 1041.53 1494.73 1041.13 1495.26 1040.73C1495.86 1040.33 1496.36 1039.96 1496.76 1039.63C1497.23 1039.29 1497.53 1039.13 1497.67 1039.13C1498.33 1039.13 1497.4 1042.17 1494.86 1048.25C1493.52 1051.32 1492.49 1053.73 1491.75 1055.47C1491.02 1057.14 1490.45 1057.97 1490.05 1057.97C1489.65 1057.97 1489.48 1057.44 1489.55 1056.37C1489.68 1055.23 1489.75 1053.86 1489.75 1052.26C1489.68 1050.65 1489.28 1049.35 1488.55 1048.35C1487.81 1047.28 1486.68 1046.78 1485.14 1046.85C1484.41 1046.91 1483.74 1047.21 1483.14 1047.75C1482.6 1048.28 1482.3 1049.05 1482.24 1050.05C1482.24 1051.06 1482.54 1052.29 1483.14 1053.76C1483.81 1055.17 1485.01 1056.77 1486.74 1058.57C1488.41 1060.31 1490.35 1062.38 1492.56 1064.79C1494.83 1067.13 1497 1069.57 1499.07 1072.11C1502.54 1076.45 1504.81 1080.86 1505.88 1085.34C1506.95 1089.81 1506.88 1093.86 1505.68 1097.47C1504.48 1101.01 1502.21 1103.91 1498.87 1106.19C1495.59 1108.39 1491.32 1109.39 1486.04 1109.19C1482.44 1109.06 1479.23 1108.09 1476.43 1106.29C1473.69 1104.42 1471.52 1102.08 1469.91 1099.27C1468.38 1096.4 1467.51 1093.26 1467.31 1089.85C1467.11 1086.44 1467.81 1083.1 1469.41 1079.82Z" fill="white"/>
<path d="M1510.23 1093.56V1043.64C1510.3 1042.57 1510.03 1041.67 1509.43 1040.93C1508.83 1040.2 1508 1039.6 1506.93 1039.13H1519.05C1518.12 1039.66 1517.35 1040.3 1516.75 1041.03C1516.15 1041.77 1515.78 1042.67 1515.64 1043.74V1049.95L1529.87 1073.01L1542.69 1052.16L1541.29 1050.25H1558.22C1556.49 1051.26 1555.49 1052.63 1555.22 1054.36V1105.08L1558.22 1109.19H1541.29L1544.4 1105.08V1070.1L1529.87 1093.66L1515.64 1070.6V1093.56L1519.05 1098.17H1506.93L1510.23 1093.56Z" fill="white"/>
<path d="M1559.27 1074.21C1559.27 1069.4 1559.91 1064.86 1561.18 1060.58C1562.51 1056.3 1564.32 1052.59 1566.59 1049.45C1568.86 1046.24 1571.53 1043.74 1574.6 1041.93C1577.67 1040.06 1580.95 1039.13 1584.42 1039.13C1587.89 1039.13 1591.17 1040.06 1594.24 1041.93C1597.31 1043.74 1599.98 1046.24 1602.25 1049.45C1604.52 1052.59 1606.29 1056.3 1607.56 1060.58C1608.9 1064.86 1609.57 1069.4 1609.57 1074.21C1609.57 1079.02 1608.9 1083.57 1607.56 1087.84C1606.29 1092.12 1604.52 1095.83 1602.25 1098.97C1599.98 1102.11 1597.31 1104.62 1594.24 1106.49C1591.17 1108.29 1587.89 1109.19 1584.42 1109.19C1580.95 1109.19 1577.67 1108.29 1574.6 1106.49C1571.53 1104.62 1568.86 1102.11 1566.59 1098.97C1564.32 1095.83 1562.51 1092.12 1561.18 1087.84C1559.91 1083.57 1559.27 1079.02 1559.27 1074.21ZM1572.6 1074.21C1572.8 1078.29 1573.3 1082.13 1574.1 1085.74C1574.9 1089.28 1575.9 1092.39 1577.11 1095.06C1578.38 1097.73 1579.78 1099.84 1581.31 1101.38C1582.85 1102.91 1584.42 1103.68 1586.02 1103.68C1587.69 1103.68 1589.2 1102.91 1590.53 1101.38C1591.93 1099.84 1593.1 1097.73 1594.04 1095.06C1594.97 1092.39 1595.64 1089.28 1596.04 1085.74C1596.44 1082.13 1596.54 1078.29 1596.34 1074.21C1596.14 1070.13 1595.61 1066.29 1594.74 1062.68C1593.94 1059.07 1592.94 1055.93 1591.73 1053.26C1590.53 1050.59 1589.16 1048.48 1587.63 1046.95C1586.09 1045.41 1584.49 1044.64 1582.82 1044.64C1581.21 1044.64 1579.71 1045.41 1578.31 1046.95C1576.97 1048.48 1575.84 1050.59 1574.9 1053.26C1573.97 1055.93 1573.3 1059.07 1572.9 1062.68C1572.5 1066.29 1572.4 1070.13 1572.6 1074.21Z" fill="white"/>
<path d="M1612.84 1079.82C1613.31 1078.89 1613.58 1078.02 1613.64 1077.22C1613.71 1076.42 1613.34 1075.55 1612.54 1074.61C1613.74 1074.48 1614.91 1074.65 1616.05 1075.11C1616.98 1075.45 1617.95 1076.12 1618.95 1077.12C1620.02 1078.12 1620.86 1079.62 1621.46 1081.63C1622.13 1083.63 1622.49 1085.84 1622.56 1088.24C1622.63 1090.58 1622.83 1092.79 1623.16 1094.86C1623.5 1096.86 1624.16 1098.54 1625.17 1099.87C1626.17 1101.14 1627.94 1101.71 1630.48 1101.58C1633.01 1101.44 1634.85 1100.67 1635.99 1099.27C1637.19 1097.8 1637.89 1096.1 1638.09 1094.16C1638.36 1092.15 1638.22 1090.12 1637.69 1088.04C1637.15 1085.91 1636.42 1084.13 1635.48 1082.73C1634.62 1081.33 1633.31 1079.72 1631.58 1077.92C1629.91 1076.05 1628.1 1074.14 1626.17 1072.21C1624.3 1070.2 1622.46 1068.23 1620.66 1066.29C1618.85 1064.35 1617.38 1062.55 1616.25 1060.88C1615.11 1059.21 1614.31 1057.37 1613.84 1055.37C1613.44 1053.29 1613.44 1051.29 1613.84 1049.35C1614.25 1047.41 1615.08 1045.64 1616.35 1044.04C1617.62 1042.44 1619.39 1041.2 1621.66 1040.33C1623.46 1039.66 1625.1 1039.33 1626.57 1039.33C1627.84 1039.33 1628.91 1039.53 1629.77 1039.93C1630.71 1040.33 1631.51 1040.76 1632.18 1041.23C1632.85 1041.63 1633.41 1042 1633.88 1042.34C1634.35 1042.67 1634.82 1042.77 1635.28 1042.64C1635.75 1042.5 1636.29 1042.27 1636.89 1041.93C1637.56 1041.53 1638.16 1041.13 1638.69 1040.73C1639.29 1040.33 1639.79 1039.96 1640.19 1039.63C1640.66 1039.29 1640.96 1039.13 1641.1 1039.13C1641.76 1039.13 1640.83 1042.17 1638.29 1048.25C1636.95 1051.32 1635.92 1053.73 1635.18 1055.47C1634.45 1057.14 1633.88 1057.97 1633.48 1057.97C1633.08 1057.97 1632.91 1057.44 1632.98 1056.37C1633.11 1055.23 1633.18 1053.86 1633.18 1052.26C1633.11 1050.65 1632.71 1049.35 1631.98 1048.35C1631.24 1047.28 1630.11 1046.78 1628.57 1046.85C1627.84 1046.91 1627.17 1047.21 1626.57 1047.75C1626.03 1048.28 1625.73 1049.05 1625.67 1050.05C1625.67 1051.06 1625.97 1052.29 1626.57 1053.76C1627.24 1055.17 1628.44 1056.77 1630.18 1058.57C1631.84 1060.31 1633.78 1062.38 1635.99 1064.79C1638.26 1067.13 1640.43 1069.57 1642.5 1072.11C1645.97 1076.45 1648.24 1080.86 1649.31 1085.34C1650.38 1089.81 1650.31 1093.86 1649.11 1097.47C1647.91 1101.01 1645.64 1103.91 1642.3 1106.19C1639.02 1108.39 1634.75 1109.39 1629.47 1109.19C1625.87 1109.06 1622.66 1108.09 1619.86 1106.29C1617.12 1104.42 1614.95 1102.08 1613.34 1099.27C1611.81 1096.4 1610.94 1093.26 1610.74 1089.85C1610.54 1086.44 1611.24 1083.1 1612.84 1079.82Z" fill="white"/>
</g>
<defs>
<linearGradient id="paint0_linear_94_43" x1="193.26" y1="255.992" x2="193.26" y2="850.82" gradientUnits="userSpaceOnUse">
<stop stop-color="#878787"/>
<stop offset="0.48" stop-color="white"/>
<stop offset="1" stop-color="#7E7C7C"/>
</linearGradient>
<linearGradient id="paint1_linear_94_43" x1="491.806" y1="255.992" x2="491.806" y2="813.634" gradientUnits="userSpaceOnUse">
<stop stop-color="#878787"/>
<stop offset="0.48" stop-color="white"/>
<stop offset="1" stop-color="#7E7C7C"/>
</linearGradient>
<linearGradient id="paint2_linear_94_43" x1="737.318" y1="45.8862" x2="737.318" y2="850.911" gradientUnits="userSpaceOnUse">
<stop stop-color="#878787"/>
<stop offset="0.48" stop-color="white"/>
<stop offset="1" stop-color="#7E7C7C"/>
</linearGradient>
<linearGradient id="paint3_linear_94_43" x1="993.009" y1="255.992" x2="993.009" y2="813.772" gradientUnits="userSpaceOnUse">
<stop stop-color="#878787"/>
<stop offset="0.48" stop-color="white"/>
<stop offset="1" stop-color="#7E7C7C"/>
</linearGradient>
<linearGradient id="paint4_linear_94_43" x1="1359.49" y1="255.901" x2="1359.49" y2="850.636" gradientUnits="userSpaceOnUse">
<stop stop-color="#878787"/>
<stop offset="0.48" stop-color="white"/>
<stop offset="1" stop-color="#7E7C7C"/>
</linearGradient>
<linearGradient id="paint5_linear_94_43" x1="993.008" y1="486.248" x2="993.008" y2="571.609" gradientUnits="userSpaceOnUse">
<stop stop-color="#878787"/>
<stop offset="0.48" stop-color="white"/>
<stop offset="1" stop-color="#7E7C7C"/>
</linearGradient>
<linearGradient id="paint6_linear_94_43" x1="993.192" y1="476.585" x2="993.192" y2="487.118" gradientUnits="userSpaceOnUse">
<stop stop-color="#878787"/>
<stop offset="0.48" stop-color="white"/>
<stop offset="1" stop-color="#7E7C7C"/>
</linearGradient>
<linearGradient id="paint7_linear_94_43" x1="993.192" y1="570.739" x2="993.192" y2="581.272" gradientUnits="userSpaceOnUse">
<stop stop-color="#878787"/>
<stop offset="0.48" stop-color="white"/>
<stop offset="1" stop-color="#7E7C7C"/>
</linearGradient>
<linearGradient id="paint8_linear_94_43" x1="1045.19" y1="525.082" x2="1034.66" y2="525.082" gradientUnits="userSpaceOnUse">
<stop stop-color="#878787"/>
<stop offset="0.48" stop-color="white"/>
<stop offset="1" stop-color="#7E7C7C"/>
</linearGradient>
<linearGradient id="paint9_linear_94_43" x1="951.675" y1="523.662" x2="941.147" y2="523.662" gradientUnits="userSpaceOnUse">
<stop stop-color="#878787"/>
<stop offset="0.48" stop-color="white"/>
<stop offset="1" stop-color="#7E7C7C"/>
</linearGradient>
<linearGradient id="paint10_linear_94_43" x1="961.654" y1="500.563" x2="953.675" y2="493.693" gradientUnits="userSpaceOnUse">
<stop stop-color="#878787"/>
<stop offset="0.48" stop-color="white"/>
<stop offset="1" stop-color="#7E7C7C"/>
</linearGradient>
<linearGradient id="paint11_linear_94_43" x1="1033.53" y1="562.503" x2="1025.55" y2="555.633" gradientUnits="userSpaceOnUse">
<stop stop-color="#878787"/>
<stop offset="0.48" stop-color="white"/>
<stop offset="1" stop-color="#7E7C7C"/>
</linearGradient>
<linearGradient id="paint12_linear_94_43" x1="1032.39" y1="501.789" x2="1025.51" y2="493.812" gradientUnits="userSpaceOnUse">
<stop stop-color="#878787"/>
<stop offset="0.48" stop-color="white"/>
<stop offset="1" stop-color="#7E7C7C"/>
</linearGradient>
<linearGradient id="paint13_linear_94_43" x1="960.369" y1="563.857" x2="953.495" y2="555.88" gradientUnits="userSpaceOnUse">
<stop stop-color="#878787"/>
<stop offset="0.48" stop-color="white"/>
<stop offset="1" stop-color="#7E7C7C"/>
</linearGradient>
<linearGradient id="paint14_linear_94_43" x1="993.009" y1="523.662" x2="993.009" y2="535.89" gradientUnits="userSpaceOnUse">
<stop stop-color="#878787"/>
<stop offset="0.48" stop-color="white"/>
<stop offset="1" stop-color="#7E7C7C"/>
</linearGradient>
<linearGradient id="paint15_linear_94_43" x1="1678.2" y1="-0.0136719" x2="1678.2" y2="854.346" gradientUnits="userSpaceOnUse">
<stop stop-color="#878787"/>
<stop offset="0.48" stop-color="white"/>
<stop offset="1" stop-color="#7E7C7C"/>
</linearGradient>
<linearGradient id="paint16_linear_94_43" x1="424.617" y1="907.147" x2="424.617" y2="924.687" gradientUnits="userSpaceOnUse">
<stop stop-color="#878787"/>
<stop offset="0.48" stop-color="white"/>
<stop offset="1" stop-color="#7E7C7C"/>
</linearGradient>
<linearGradient id="paint17_linear_94_43" x1="1552.38" y1="907.147" x2="1552.38" y2="924.687" gradientUnits="userSpaceOnUse">
<stop stop-color="#878787"/>
<stop offset="0.48" stop-color="white"/>
<stop offset="1" stop-color="#7E7C7C"/>
</linearGradient>
<linearGradient id="paint18_linear_94_43" x1="989.713" y1="846.835" x2="989.713" y2="1002.49" gradientUnits="userSpaceOnUse">
<stop stop-color="#878787"/>
<stop offset="0.48" stop-color="white"/>
<stop offset="1" stop-color="#7E7C7C"/>
</linearGradient>
<clipPath id="clip0_94_43">
<rect width="1977" height="1126" fill="white"/>
</clipPath>
</defs>
</svg>
